<svg width="36" height="35" viewBox="0 0 36 35" fill="none" xmlns="http://www.w3.org/2000/svg">
<path d="M17.96 9.05543C16.2227 9.05352 14.5238 9.54707 13.0784 10.4736C11.633 11.4001 10.5061 12.7179 9.8403 14.2602C9.17452 15.8026 8.99981 17.5001 9.33827 19.1379C9.67673 20.7757 10.5131 22.2802 11.7417 23.4609C12.9702 24.6417 14.5355 25.4456 16.2396 25.7709C17.9437 26.0962 19.7099 25.9282 21.3146 25.2883C22.9194 24.6485 24.2905 23.5654 25.2545 22.1762C26.2185 20.787 26.732 19.1542 26.73 17.4844C26.7248 15.2504 25.7991 13.1094 24.1555 11.5298C22.512 9.95018 20.2844 9.0605 17.96 9.05543ZM17.96 22.8858C16.8485 22.8858 15.7619 22.569 14.8377 21.9755C13.9135 21.382 13.1932 20.5384 12.7678 19.5514C12.3425 18.5644 12.2312 17.4784 12.448 16.4306C12.6649 15.3828 13.2001 14.4204 13.9861 13.665C14.7721 12.9096 15.7735 12.3951 16.8636 12.1867C17.9538 11.9783 19.0838 12.0853 20.1107 12.4941C21.1376 12.9029 22.0154 13.5952 22.6329 14.4835C23.2504 15.3718 23.58 16.4161 23.58 17.4844C23.5814 18.1945 23.437 18.8979 23.1551 19.5544C22.8733 20.2108 22.4595 20.8074 21.9375 21.31C21.4155 21.8126 20.7955 22.2113 20.113 22.4833C19.4305 22.7554 18.6989 22.8954 17.96 22.8954V22.8858Z" fill="black"/>
<path d="M24.92 34.6211H10.7C7.863 34.6185 5.14295 33.5342 3.13688 31.6062C1.13082 29.6781 0.0026477 27.0639 0 24.3372V10.6606C0.0105751 7.9389 1.14224 5.33202 3.14745 3.4102C5.15266 1.48837 7.86818 0.40804 10.7 0.405518H24.92C27.7579 0.408057 30.479 1.49205 32.4867 3.41982C34.4943 5.3476 35.6247 7.96184 35.63 10.6894V24.3372C35.6247 27.0647 34.4943 29.679 32.4867 31.6068C30.479 33.5345 27.7579 34.6185 24.92 34.6211ZM10.7 3.59641C8.75147 3.59895 6.88351 4.34403 5.50569 5.66826C4.12787 6.9925 3.35265 8.78782 3.35 10.6606V24.3372C3.35265 26.2099 4.12787 28.0053 5.50569 29.3295C6.88351 30.6537 8.75147 31.3988 10.7 31.4014H24.92C26.8685 31.3988 28.7365 30.6537 30.1143 29.3295C31.4921 28.0053 32.2673 26.2099 32.27 24.3372V10.6606C32.2673 8.78782 31.4921 6.9925 30.1143 5.66826C28.7365 4.34403 26.8685 3.59895 24.92 3.59641H10.7Z" fill="black"/>
</svg>
