<svg width="76" height="92" viewBox="0 0 76 92" fill="none" xmlns="http://www.w3.org/2000/svg">
<path d="M38.0282 18.6563C40.2352 22.6015 40.7391 26.7653 39.6766 31.0803C39.2 33.017 38.5516 34.918 37.9813 36.8349C38.0164 36.8349 38.0711 36.8508 38.0867 36.831C42.9265 30.1457 45.4187 25.3732 42.0828 18.6282C41.0125 16.4608 39.5633 14.4523 38.2117 12.4122C36.6336 10.034 35.9969 7.48065 36.325 4.70875C36.5047 3.20938 36.7 1.71012 36.9188 0C36.6297 0.373839 36.4618 0.560754 36.329 0.771532C36.0165 1.26468 35.6961 1.75384 35.4188 2.26693C32.5047 7.0671 32.8485 10.6027 35.6727 14.7184C36.5399 15.9791 37.2821 17.324 38.0282 18.6563Z" fill="black"/>
<path d="M25.8292 23.4374C27.3214 26.102 27.6612 28.9177 26.9464 31.8329C26.6222 33.1413 26.1847 34.4259 25.798 35.7223C25.8214 35.7223 25.8605 35.7303 25.8683 35.7223C29.1417 31.2045 30.8214 27.9791 28.5675 23.4175C27.8449 21.954 26.8644 20.5939 25.9503 19.2178C24.8839 17.6111 24.4542 15.8851 24.6769 14.0119C24.798 12.9978 24.9308 11.9836 25.0754 10.8303C24.88 11.0809 24.7668 11.2081 24.6769 11.3513C24.466 11.6854 24.2472 12.0155 24.0597 12.3615C22.087 15.6067 22.3214 17.9928 24.2316 20.7767C24.8254 21.6278 25.3253 22.5347 25.8292 23.4374Z" fill="black"/>
<path d="M65.0712 86.5164H1.2392C0.704043 86.5164 0.457952 87.1924 0.860292 87.5503L4.93059 91.1535C5.28215 91.4637 5.73137 91.6347 6.19619 91.6347H60.1142C60.579 91.6347 61.0283 91.4637 61.3798 91.1535L65.4501 87.5503C65.8524 87.1924 65.6024 86.5164 65.0712 86.5164Z" fill="black"/>
<path d="M71.0202 50.5201C69.4811 49.9395 67.6647 49.7446 65.7194 49.677C65.7428 49.2833 65.778 48.8935 65.7936 48.4998C65.8014 48.297 65.8249 48.1061 65.8327 47.9033C65.8444 47.3465 65.6374 46.8414 65.3131 46.4039C65.2506 46.3164 65.2194 46.213 65.1452 46.1375C64.6921 45.6602 64.0632 45.3858 63.4186 45.3858L32.9146 45.3818H2.41457C1.77004 45.3818 1.13727 45.6562 0.687973 46.1335C0.613754 46.213 0.582503 46.3164 0.520003 46.3999C0.195783 46.8374 -0.0112471 47.3465 0.000472913 47.8993C0.00437891 48.1021 0.0317234 48.297 0.0395364 48.4959C0.0707864 49.3986 0.125473 50.2974 0.207506 51.1922C0.258288 51.7689 0.328596 52.3416 0.402816 52.9103C0.457503 53.3358 0.520006 53.7614 0.590316 54.1829C2.68412 67.6647 10.4145 78.5615 20.7853 83.4097C21.5275 83.7557 22.34 83.9108 23.1564 83.9108H42.6724C43.4888 83.9108 44.3013 83.7557 45.0435 83.4097C50.3169 80.944 54.9029 76.9114 58.4185 71.7728C59.2545 71.9716 60.1255 72.1148 61.0904 72.1148C68.4224 72.1148 75.6174 65.0039 75.6174 57.7615C75.6174 54.1067 74.071 51.6694 71.0202 50.5201ZM7.00819 51.4507C6.95351 51.2041 7.10975 50.9735 7.30506 50.9973C8.04334 51.0848 8.34806 51.0132 8.98086 51.2479C9.25039 51.3473 9.85195 52.1705 9.9418 52.6438C10.727 56.7361 11.9379 60.6336 13.8832 64.0894C15.184 66.396 16.7309 68.4839 18.223 70.7509C12.2074 66.3921 8.85989 59.7147 7.00819 51.4507ZM61.0902 68.1935C60.9535 68.1935 60.7855 68.1895 60.6058 68.1816C62.848 64.0097 64.4496 59.2811 65.2425 54.1826C65.2738 53.9837 65.3011 53.7849 65.3285 53.586C67.0277 53.6377 68.5629 53.7769 69.6801 54.1985C70.9301 54.6678 71.7621 55.4552 71.7621 57.7658C71.766 62.8325 66.2778 68.1935 61.0902 68.1935Z" fill="black"/>
</svg>
