<svg width="44" height="35" viewBox="0 0 44 35" fill="none" xmlns="http://www.w3.org/2000/svg">
<path d="M43.0912 4.62301C41.6912 5.20331 40.219 5.60712 38.7112 5.8244C39.4112 5.70907 40.4512 4.48846 40.8612 3.98868C41.5109 3.23752 42.0033 2.37264 42.3112 1.44173C42.3112 1.37446 42.3812 1.27834 42.3112 1.23029C42.2744 1.21094 42.2331 1.2008 42.1912 1.2008C42.1492 1.2008 42.108 1.21094 42.0712 1.23029C40.432 2.07798 38.6883 2.72381 36.8812 3.15251C36.8187 3.17087 36.7521 3.17252 36.6887 3.15728C36.6253 3.14204 36.5674 3.11048 36.5212 3.06601C36.3815 2.9062 36.2312 2.75531 36.0712 2.61429C35.3219 1.99553 34.4746 1.49586 33.5612 1.13418C32.336 0.664281 31.0178 0.460784 29.7012 0.538288C28.425 0.611045 27.1785 0.93836 26.0412 1.4994C24.9054 2.07652 23.9021 2.86753 23.0912 3.82529C22.2507 4.8172 21.6496 5.97594 21.3312 7.21801C21.0565 8.39247 21.0259 9.6075 21.2412 10.7933C21.2412 10.9952 21.2412 11.024 21.0612 10.9952C13.9312 9.9764 8.06117 7.52557 3.22117 2.26829C3.02117 2.04724 2.90117 2.04724 2.73117 2.26829C0.631174 5.38229 1.65117 10.1878 4.27117 12.5906C4.62055 12.9288 4.9877 13.2496 5.37117 13.5517C4.16957 13.4536 3.00025 13.1269 1.93117 12.5906C1.72117 12.4561 1.62117 12.533 1.60117 12.7636C1.57335 13.0834 1.57335 13.4049 1.60117 13.7247C1.81164 15.2782 2.45006 16.7495 3.45041 17.9863C4.45076 19.2232 5.77672 20.1808 7.29117 20.7601C7.65807 20.9097 8.0401 21.0225 8.43117 21.0965C7.32138 21.3097 6.18218 21.3422 5.06117 21.1926C4.81117 21.1445 4.72117 21.2694 4.81117 21.4905C6.30117 25.383 9.50117 26.546 11.9012 27.1995C12.2212 27.2572 12.5512 27.2572 12.9012 27.3245L12.8412 27.3821C11.9812 28.5355 9.25117 29.4101 7.98117 29.8426C5.62294 30.6447 3.11347 30.9527 0.621174 30.746C0.231174 30.6883 0.141174 30.6883 0.0411739 30.746C-0.0588261 30.8037 0.0411739 30.8998 0.151174 30.9959C0.651174 31.3131 1.15117 31.6014 1.68117 31.8705C3.24522 32.6779 4.89459 33.3223 6.60117 33.7927C15.4412 36.1378 25.3912 34.4078 32.0212 28.0741C37.2312 23.1052 39.0212 16.2428 39.0212 9.3709C39.0212 9.10179 39.3512 8.95762 39.5412 8.81346C40.8649 7.8265 42.0336 6.66116 43.0112 5.35346C43.1589 5.16192 43.2363 4.92866 43.2312 4.69029C43.2612 4.51729 43.2612 4.54612 43.0912 4.62301Z" fill="black"/>
</svg>
