<svg width="65" height="66" viewBox="0 0 65 66" fill="none" xmlns="http://www.w3.org/2000/svg">
<g opacity="0.5">
<path d="M18.4429 14.1726C22.2941 14.1726 25.4162 11 25.4162 7.08632C25.4162 3.17265 22.2941 0 18.4429 0C14.5916 0 11.4695 3.17265 11.4695 7.08632C11.4695 11 14.5916 14.1726 18.4429 14.1726Z" fill="#725E2A"/>
<path d="M25.8947 22.3705H35.8761V27.9284C35.8761 29.3179 37.0384 30.4989 38.4057 30.4989C39.773 30.4989 40.9352 29.3179 40.9352 27.9284V22.3705H41.2087C42.9178 22.3705 44.3535 20.9115 44.3535 19.1747C44.3535 17.4379 42.9178 15.9789 41.2087 15.9789H40.9352V10.3515C42.576 9.51787 43.6015 7.8505 43.6015 6.04418C43.6015 4.16839 42.5076 2.43155 40.7985 1.66734C40.7301 1.66734 40.6618 1.66734 40.5934 1.66734C40.525 1.73681 40.525 1.80629 40.525 1.87576V4.9326C40.525 6.11366 39.5679 7.08629 38.4057 7.08629C37.2435 7.08629 36.2863 6.11366 36.2863 4.9326V1.87576C36.2863 1.80629 36.218 1.73681 36.218 1.66734C36.1496 1.59787 36.0812 1.59787 36.0129 1.66734C34.3037 2.50102 33.2099 4.16839 33.2099 6.04418C33.2099 7.8505 34.2354 9.51787 35.8761 10.3515V15.9789H18.4429C6.3421 15.9789 0.804463 24.1768 0.530999 24.5242C-0.221025 25.6358 -0.152659 27.0947 0.599365 28.1368L6.06863 35.9179C6.68393 36.821 7.64105 37.2379 8.59817 37.2379C9.21346 37.2379 9.82876 37.0294 10.444 36.6126C10.5808 36.4737 10.7859 36.3347 10.9226 36.1958V38.4189L9.00837 62.04C8.87163 63.9852 10.239 65.7221 12.2216 65.861C12.2899 65.861 12.4267 65.861 12.495 65.861C14.2725 65.861 15.7766 64.4715 15.9817 62.5958L17.8276 39.8779H19.1949L21.0408 62.5958C21.1775 64.541 22.8866 66 24.8009 65.861C26.7151 65.7221 28.1508 63.9852 28.0141 62.04L26.0998 38.4189L25.8947 22.3705ZM7.16249 26.5389C8.05124 25.7052 9.28183 24.7326 10.991 23.9684L10.9226 31.9579L7.16249 26.5389Z" fill="#725E2A"/>
<path d="M63.701 46.0611L59.5991 45.6442C59.4623 45.6442 59.3256 45.5053 59.2572 45.3663C59.1205 44.88 58.9154 44.4632 58.7103 43.9769C58.642 43.8379 58.642 43.699 58.7787 43.56L61.3766 40.2948C61.7868 39.8084 61.7868 39.0442 61.3082 38.5579L58.7787 35.9874C58.3001 35.5011 57.5481 35.5011 57.0695 35.9179L53.8563 38.5579C53.7196 38.6274 53.5829 38.6969 53.4461 38.6274C53.0359 38.419 52.5574 38.2105 52.0788 38.0716C51.9421 38.0021 51.8054 37.9327 51.8054 37.7242L51.3952 33.5558C51.3268 32.8611 50.7799 32.3748 50.0962 32.3748H46.5412C45.8575 32.3748 45.3106 32.8611 45.2422 33.5558L44.832 37.7242C44.832 37.8632 44.6953 38.0021 44.5586 38.0716C44.08 38.2105 43.6698 38.419 43.1913 38.6274C43.0545 38.6969 42.9178 38.6969 42.7811 38.5579L39.5679 35.9179C39.0893 35.5011 38.3373 35.5011 37.8587 35.9874L35.3292 38.5579C34.8506 39.0442 34.8506 39.8084 35.2608 40.2948L37.8587 43.56C37.9271 43.699 37.9955 43.8379 37.9271 43.9769C37.722 44.3937 37.5169 44.88 37.3802 45.3663C37.3118 45.5053 37.2434 45.6442 37.0383 45.6442L32.9364 46.0611C32.2527 46.1305 31.7742 46.6863 31.7742 47.3811V50.9937C31.7742 51.6884 32.2527 52.2442 32.9364 52.3137L37.0383 52.7305C37.1751 52.7305 37.3118 52.8695 37.3802 53.0084C37.5169 53.4948 37.722 53.9116 37.9271 54.3979C37.9955 54.5369 37.9955 54.6758 37.8587 54.8148L35.2608 58.08C34.8506 58.5663 34.8506 59.3305 35.3292 59.8169L37.8587 62.3874C38.3373 62.8737 39.0893 62.8737 39.5679 62.4569L42.7811 59.8169C42.9178 59.7474 43.0545 59.6779 43.1913 59.7474C43.6015 59.9558 44.08 60.1642 44.5586 60.3032C44.6953 60.3727 44.832 60.4421 44.832 60.6505L45.2422 64.819C45.3106 65.5137 45.8575 66 46.5412 66H50.233C50.9166 66 51.4635 65.5137 51.5319 64.819L51.9421 60.6505C51.9421 60.5116 52.0788 60.3727 52.2156 60.3032C52.6941 60.1642 53.1043 59.9558 53.5829 59.7474C53.7196 59.6779 53.8563 59.6779 53.9931 59.8169L57.2063 62.4569C57.6848 62.8737 58.4369 62.8737 58.9154 62.3874L61.445 59.8169C61.9235 59.3305 61.9235 58.5663 61.5133 58.08L58.9154 54.8148C58.847 54.6758 58.7787 54.5369 58.847 54.3979C59.0521 53.9811 59.2572 53.4948 59.394 53.0084C59.4623 52.8695 59.5307 52.7305 59.7358 52.7305L63.8378 52.3137C64.5214 52.2442 65 51.6884 65 50.9937V47.3811C64.8632 46.6863 64.3847 46.1305 63.701 46.0611ZM48.4554 54.8842C45.3106 54.8842 42.8494 52.3137 42.8494 49.1874C42.8494 45.9916 45.379 43.4905 48.4554 43.4905C51.6003 43.4905 54.0614 46.0611 54.0614 49.1874C54.0614 52.3137 51.5319 54.8842 48.4554 54.8842Z" fill="#725E2A"/>
</g>
</svg>
