<svg width="248" height="274" viewBox="0 0 248 274" fill="none" xmlns="http://www.w3.org/2000/svg">
<g opacity="0.5">
<path d="M4.12758 93.5054C3.68047 96.3514 4.68372 99.2304 6.7883 101.193C9.19824 103.265 12.546 102.611 15.4685 102.698C40.5276 102.6 65.5749 102.622 90.6351 102.622C90.6024 106.264 90.6242 109.906 90.6896 113.537C94.7899 113.537 98.9008 113.526 103.001 113.592C103.034 120.495 103.012 127.397 103.121 134.311C106.556 134.333 109.991 134.344 113.437 134.365C113.48 129.469 113.437 124.562 113.437 119.655C120.438 119.633 127.46 119.666 134.472 119.666C134.418 124.486 134.516 129.306 134.429 134.126C137.918 134.311 141.418 134.169 144.897 134.355C144.952 127.441 144.908 120.538 144.853 113.625C148.986 113.625 153.119 113.625 157.263 113.636C157.23 110.026 157.317 106.428 157.154 102.818C184.088 102.404 211.057 102.829 237.99 102.589L237.979 102.567C240.673 102.099 242.941 100.267 243.977 97.7365C243.879 67.8134 244.129 37.8819 243.911 7.95872H243.9C242.843 2.94249 238.165 -0.470518 233.061 0.0529063C160.206 0.0419996 87.3537 0.0529064 14.4874 0.0747144C11.903 -0.219716 9.31844 0.587224 7.36655 2.29928C5.41461 4.00043 4.26955 6.45402 4.21512 9.04937C3.95341 37.1943 4.30205 65.3605 4.12758 93.5054ZM109.477 51.1738C112.846 41.643 117.764 32.7339 124.023 24.7955C127.938 29.9205 131.417 35.3622 134.448 41.0543C138.549 47.4007 140.282 54.9905 139.366 62.482C138.265 69.2104 132.9 74.4225 126.15 75.3061C119.4 76.2003 112.857 72.5581 110.065 66.3534C107.939 61.5552 107.732 56.1245 109.477 51.1738Z" fill="#725E2A"/>
<path d="M117.286 69.0788C120.34 70.7909 124.189 69.9948 126.326 67.225C129.129 63.3213 130.23 58.4578 129.391 53.736C128.834 46.757 127.035 39.9307 124.08 33.5952C118.475 39.5056 114.462 46.757 112.434 54.6522C111.103 59.9956 113.001 65.6329 117.286 69.0788Z" fill="#725E2A"/>
<path d="M17.1487 106.787C16.9306 146.219 17.1051 185.65 17.0506 225.093C28.0643 225.125 39.078 225.005 50.0808 225.114C49.9826 185.65 50.0044 146.187 50.1462 106.723C39.1434 106.81 28.1507 106.646 17.1487 106.787Z" fill="#725E2A"/>
<path d="M230.706 106.721C219.79 106.743 208.864 106.666 197.949 106.732C197.949 146.197 197.949 185.659 197.96 225.112C208.876 225.058 219.813 225.036 230.75 225.069C230.587 185.626 230.87 146.174 230.706 106.721Z" fill="#725E2A"/>
<path d="M160.098 178.203C160.044 175.423 159.989 172.642 159.989 169.861C136.053 169.883 112.108 169.817 88.1808 169.85C88.2026 175.891 87.9627 181.954 88.377 187.985C89.7074 201.256 96.9372 213.229 108.071 220.591C108.071 222.15 108.082 223.72 108.093 225.29C118.507 225.225 128.91 225.203 139.325 225.236C139.325 223.666 139.314 222.085 139.325 220.525H139.314C144.428 217.592 148.91 213.655 152.465 208.955C160.295 211.093 168.648 208.367 173.708 202.02C177.481 197.287 177.993 190.744 174.983 185.488C171.985 180.243 166.085 177.353 160.098 178.203ZM167.383 189.969C168.277 191.649 168.44 193.622 167.84 195.432C167.252 197.232 165.932 198.726 164.209 199.533C161.821 200.547 159.204 200.918 156.631 200.612C158.092 196.25 159.182 191.768 159.913 187.221C162.737 186.371 165.78 187.483 167.383 189.969Z" fill="#725E2A"/>
<path d="M248 264.326C247.989 255.046 248.022 245.777 247.945 236.497C247.804 234.305 246.779 232.255 245.11 230.815C243.442 229.376 241.272 228.667 239.069 228.842C166.836 228.885 94.6038 228.667 22.3935 228.896C17.2246 228.983 12.045 228.634 6.89788 229.071V229.081C3.04855 229.474 0.147795 232.735 0.20251 236.595C0.0498434 245.526 -0.0810036 254.457 0.0607482 263.388V263.399C-0.00467853 267.695 2.60155 271.577 6.59253 273.147C9.54772 273.529 12.5247 273.66 15.5016 273.518C87.3295 273.42 159.171 273.409 230.999 273.496C234.576 273.627 238.163 273.507 241.729 273.147C245.437 271.784 247.924 268.284 248 264.326Z" fill="#725E2A"/>
</g>
</svg>
