<svg width="326" height="229" viewBox="0 0 326 229" fill="none" xmlns="http://www.w3.org/2000/svg">
<g opacity="0.5">
<path d="M46.426 96.1567L50.007 99.9128C50.3253 99.0215 50.7869 98.1621 51.3121 97.3027C51.3121 97.3027 51.3121 97.2549 51.3598 97.2231C51.9328 96.3636 52.5853 95.5519 53.3174 94.8198L64.8401 83.8223L68.7076 80.1617C70.2514 78.6498 72.0817 77.6789 73.9599 77.0582C77.9069 75.8327 82.1086 76.5648 84.8779 79.4614L98.072 93.276C98.3107 93.5625 98.6449 93.6898 98.9632 93.8808C99.2497 94.0877 99.4885 94.2468 99.8227 94.3741C100.348 94.581 100.889 94.6925 101.446 94.7402C102.783 94.7402 103.897 94.2945 104.788 93.4351L113.017 85.5728L136.205 63.4026L137.383 62.2567C138.688 60.9994 139.102 59.1531 138.609 57.4819C138.609 57.3546 138.609 57.1954 138.529 57.0681C138.322 56.4952 137.956 55.9222 137.51 55.4447L129.648 47.1689L123.584 40.8185C122.804 40.0069 122.327 39.0678 121.913 38.0811C121.181 36.1712 121.101 34.0545 121.913 32.049C122.072 31.6034 122.359 31.2373 122.613 30.8235C124.046 28.5794 126.369 27.1152 129.091 26.9879C138.385 26.6696 150.067 27.147 163.07 28.3247C169.628 28.9295 176.519 29.7094 183.601 30.6802H184.047C184.286 30.6802 184.572 30.728 184.779 30.728C188.487 30.728 191.671 28.4839 193.007 25.1416C193.214 24.6164 193.421 24.0434 193.533 23.4705C194.503 18.6957 191.495 13.9849 186.768 12.8706C167.336 8.43035 146.836 5.58114 125.861 4.35598C104.757 3.17824 83.8579 10.9609 68.5342 25.5394L55.0061 38.4629L50.6453 42.6167C50.6453 42.6167 50.5657 42.8236 50.518 42.935C50.4384 43.0942 50.4384 43.2215 50.4384 43.4603C50.4384 43.6672 50.4384 43.9059 50.4862 44.1128C52.3642 48.3942 51.0591 53.8053 47.2235 57.434L35.0004 69.1319L31.865 72.1081C30.6873 73.254 29.3026 74.0657 27.8702 74.6705C27.4565 74.8297 27.0904 75.0843 26.6925 75.1957L46.4116 95.854L46.426 96.1567Z" fill="#725E2A"/>
<path d="M151.084 132.668L173.462 109.24L136.06 70.0879L112.664 92.4492L151.084 132.668Z" fill="#725E2A"/>
<path d="M0.907172 92.5265L16.7589 109.11L31.799 124.883C32.0855 125.169 32.4038 125.376 32.7699 125.535C33.5497 125.901 34.441 125.949 35.2527 125.615C35.6665 125.456 36.0326 125.249 36.3509 124.962L50.3247 111.593C50.5316 111.387 50.6908 111.1 50.8181 110.861C51.4229 109.763 51.391 108.378 50.5316 107.36C50.4839 107.28 50.452 107.201 50.4043 107.121L19.5283 74.8127C19.3214 74.6058 19.035 74.4466 18.7962 74.2874C18.5893 74.1601 18.3505 74.0805 18.0959 74.001C17.8094 73.9214 17.5707 73.8418 17.2842 73.8418H17.2046C16.7908 73.8418 16.3929 73.9214 16.0269 74.0487C15.6608 74.176 15.2948 74.4148 15.0083 74.7012L5.634 83.6616L0.986773 88.1018C0.986773 88.1018 0.859448 88.3087 0.779871 88.3883C0.334217 88.9135 0 89.5661 0 90.2982V90.3778C0 91.1894 0.286475 92.0012 0.859445 92.5741L0.907172 92.5265Z" fill="#725E2A"/>
<path d="M237.713 223.355C238.446 224.135 239.257 224.819 240.164 225.44C241.024 226.044 241.915 226.538 242.854 226.952C243.013 227.031 243.172 227.031 243.348 227.111C245.146 227.843 247.008 228.257 249.013 228.289C251.003 228.289 252.929 227.97 254.759 227.349C254.918 227.302 255.077 227.27 255.252 227.222C257.21 226.442 259.04 225.312 260.584 223.848C262.94 221.604 264.452 218.755 265.152 215.827C266.33 210.686 265.025 205.068 261.157 200.993L203.256 140.371L186.513 157.926L180.895 163.83L237.777 223.353L237.713 223.355Z" fill="#725E2A"/>
<path d="M212.583 75.0519L93.4076 199.972C86.9778 206.688 87.2483 217.336 93.9328 223.718C97.1955 226.821 101.509 228.652 105.917 228.365C110.405 228.286 114.591 226.408 117.694 223.193L229.422 106.136C237.698 97.494 250.032 94.1994 261.651 97.5416C269.481 99.8175 277.662 99.4992 285.285 96.6026C307.615 88.0081 320.332 63.9282 325.902 50.3219C326.188 49.542 325.775 49.0646 325.584 48.8576C325.456 48.778 325.17 48.5711 324.772 48.5711C324.565 48.5711 324.358 48.6189 324.119 48.778L288.389 69.1499C285.62 70.821 282.151 70.7414 279.508 69.0703C255.428 54.0302 254.362 37.2552 255.015 30.7297C255.301 27.8808 257.099 25.3185 259.694 23.9178L294.087 5.90131C295.599 5.12144 295.885 3.70498 295.631 2.60682C295.392 1.54048 294.564 0.330913 292.941 0.25134C266.617 -1.46755 234.515 5.3443 223.677 29.5518C221.321 34.8517 220.669 40.8039 221.799 47.2337C223.47 57.0057 220.048 67.3985 212.711 75.1015L212.583 75.1811L212.583 75.0519ZM105.79 216.143C102.941 216.143 100.649 213.82 100.649 211.003C100.649 208.186 102.973 205.91 105.79 205.91C108.607 205.91 110.883 208.186 110.883 211.003C110.883 213.82 108.559 216.143 105.79 216.143Z" fill="#725E2A"/>
</g>
</svg>
