<svg width="100" height="96" viewBox="0 0 100 96" fill="none" xmlns="http://www.w3.org/2000/svg">
<g opacity="0.5">
<path d="M94.9594 53.4954C93.6855 52.9544 92.3135 52.6825 90.9295 52.6967C90.5048 52.6932 90.0804 52.7175 89.6589 52.7693C89.2468 52.8038 88.8493 52.8837 88.4463 52.9509C88.4463 52.891 88.4463 52.8311 88.4463 52.7693C88.3521 51.6778 87.8548 50.6604 87.0515 49.9154C86.2481 49.1704 85.1961 48.7512 84.1006 48.7395H27.4647C26.2982 48.7543 25.1849 49.2305 24.3685 50.064C23.5521 50.8974 23.0989 52.0202 23.1081 53.1868V54.8387C23.1081 73.4995 37.7572 88.675 55.7827 88.675C64.0822 88.647 72.0456 85.3922 77.9886 79.5987C78.6699 79.3567 79.3355 79.1147 79.9854 78.8726C91.8027 74.4434 98.4283 69.3244 99.6809 63.6245C100.235 61.6506 100.063 59.5433 99.1973 57.685C98.331 55.8267 96.8275 54.3403 94.9594 53.4954ZM55.7827 85.0445C39.7721 85.0445 26.7386 71.5027 26.7386 54.8387V53.1868C26.7272 52.9824 26.7972 52.7817 26.9332 52.6287C27.0693 52.4756 27.2604 52.3826 27.4647 52.37H84.1006C84.3049 52.3826 84.496 52.4756 84.6321 52.6287C84.7681 52.7817 84.8381 52.9824 84.8267 53.1868V54.8387C84.8267 55.6919 84.7904 56.5451 84.7177 57.3801C84.1889 64.229 81.3689 70.7002 76.7125 75.7504C75.3266 77.2612 73.7875 78.6239 72.1199 79.8166C67.3503 83.2158 61.6396 85.0432 55.7827 85.0445ZM96.1393 62.844C95.3769 66.2748 91.347 69.7782 84.5398 73.0094C83.9844 73.2744 83.3708 73.5303 82.7809 73.7899C82.9624 73.5249 83.1548 73.2798 83.3255 73.0094C86.3699 68.0739 88.1182 62.4493 88.4081 56.6576C88.8202 56.5632 89.2286 56.4579 89.648 56.3998C90.9452 56.2028 92.2715 56.3467 93.4963 56.8173C94.5932 57.33 95.4662 58.2241 95.9525 59.333C96.4388 60.4419 96.5052 61.6898 96.1393 62.844ZM84.8267 94.1207C84.8267 94.6022 84.6354 95.0639 84.295 95.4043C83.9546 95.7447 83.4928 95.936 83.0114 95.936H28.5539C28.0725 95.936 27.6107 95.7447 27.2703 95.4043C26.9299 95.0639 26.7386 94.6022 26.7386 94.1207C26.7386 93.6393 26.9299 93.1776 27.2703 92.8372C27.6107 92.4967 28.0725 92.3055 28.5539 92.3055H83.0114C83.4928 92.3055 83.9546 92.4967 84.295 92.8372C84.6354 93.1776 84.8267 93.6393 84.8267 94.1207ZM62.1469 29.3925C62.3157 27.089 64.2217 25.1576 67.9775 23.4839C68.1963 23.3789 68.4339 23.3189 68.6763 23.3074C68.9186 23.2958 69.1609 23.333 69.3887 23.4167C69.6164 23.5003 69.8251 23.6288 70.0024 23.7945C70.1796 23.9603 70.3219 24.1598 70.4207 24.3815C70.5195 24.6031 70.5728 24.8423 70.5776 25.0849C70.5823 25.3275 70.5384 25.5686 70.4484 25.7939C70.3584 26.0193 70.2241 26.2243 70.0535 26.3968C69.8829 26.5694 69.6794 26.706 69.4551 26.7985C66.0316 28.3252 65.7829 29.4452 65.7683 29.6539C65.7248 30.2602 66.7867 31.1842 67.7234 31.9992C68.6602 32.6144 69.4558 33.4215 70.0572 34.3672C70.6587 35.3129 71.0524 36.3756 71.2123 37.4849C71.2831 40.0916 69.397 42.5023 65.4289 44.8548C65.2237 44.9814 64.9954 45.0658 64.7573 45.1031C64.5192 45.1404 64.276 45.13 64.042 45.0724C63.808 45.0147 63.5878 44.9111 63.3942 44.7674C63.2007 44.6238 63.0377 44.443 62.9147 44.2357C62.7918 44.0284 62.7114 43.7986 62.6781 43.5599C62.6449 43.3212 62.6596 43.0782 62.7213 42.8452C62.7829 42.6122 62.8904 42.3938 63.0374 42.2028C63.1844 42.0118 63.3679 41.8519 63.5773 41.7326C66.1532 40.2042 67.6145 38.6921 67.5836 37.583C67.5582 36.6753 66.4309 35.6878 65.3418 34.7385C63.8387 33.4315 61.9708 31.8068 62.1469 29.3925ZM51.2554 29.3925C51.4242 27.089 53.3302 25.1576 57.086 23.4839C57.3048 23.3789 57.5424 23.3189 57.7848 23.3074C58.0271 23.2958 58.2694 23.333 58.4972 23.4167C58.7249 23.5003 58.9336 23.6288 59.1109 23.7945C59.2881 23.9603 59.4304 24.1598 59.5291 24.3815C59.6279 24.6031 59.6813 24.8423 59.6861 25.0849C59.6908 25.3275 59.6469 25.5686 59.5569 25.7939C59.4669 26.0193 59.3326 26.2243 59.162 26.3968C58.9914 26.5694 58.7879 26.706 58.5636 26.7985C55.1401 28.3252 54.8914 29.4452 54.8768 29.6539C54.8333 30.2602 55.8952 31.1842 56.8319 31.9992C57.7687 32.6144 58.5643 33.4215 59.1657 34.3672C59.7672 35.3129 60.1609 36.3756 60.3208 37.4849C60.3916 40.0916 58.5055 42.5023 54.5374 44.8548C54.3322 44.9814 54.1039 45.0658 53.8658 45.1031C53.6277 45.1404 53.3845 45.13 53.1505 45.0724C52.9165 45.0147 52.6963 44.9111 52.5027 44.7674C52.3092 44.6238 52.1462 44.443 52.0232 44.2357C51.9003 44.0284 51.8199 43.7986 51.7866 43.5599C51.7534 43.3212 51.7681 43.0782 51.8298 42.8452C51.8914 42.6122 51.9989 42.3938 52.1459 42.2028C52.2929 42.0118 52.4764 41.8519 52.6858 41.7326C55.2617 40.2042 56.723 38.6921 56.6921 37.583C56.6667 36.6753 55.5394 35.6878 54.4503 34.7385C52.9472 33.4315 51.0793 31.8068 51.2554 29.3925ZM40.3639 29.3925C40.5327 27.089 42.4387 25.1576 46.1945 23.4839C46.4133 23.3789 46.6509 23.3189 46.8933 23.3074C47.1356 23.2958 47.3779 23.333 47.6057 23.4167C47.8334 23.5003 48.0421 23.6288 48.2194 23.7945C48.3966 23.9603 48.5388 24.1598 48.6376 24.3815C48.7364 24.6031 48.7898 24.8423 48.7946 25.0849C48.7993 25.3275 48.7554 25.5686 48.6654 25.7939C48.5754 26.0193 48.4411 26.2243 48.2705 26.3968C48.0999 26.5694 47.8964 26.706 47.6721 26.7985C44.2486 28.3252 43.9999 29.4452 43.9853 29.6539C43.9418 30.2602 45.0037 31.1842 45.9404 31.9992C46.8772 32.6144 47.6728 33.4215 48.2742 34.3672C48.8757 35.3129 49.2694 36.3756 49.4293 37.4849C49.5001 40.0916 47.614 42.5023 43.6459 44.8548C43.4407 44.9814 43.2124 45.0658 42.9743 45.1031C42.7362 45.1404 42.493 45.13 42.259 45.0724C42.025 45.0147 41.8047 44.9111 41.6112 44.7674C41.4177 44.6238 41.2547 44.443 41.1317 44.2357C41.0088 44.0284 40.9284 43.7986 40.8951 43.5599C40.8619 43.3212 40.8766 43.0782 40.9383 42.8452C40.9999 42.6122 41.1074 42.3938 41.2544 42.2028C41.4014 42.0118 41.5849 41.8519 41.7943 41.7326C44.3702 40.2042 45.8315 38.6921 45.8006 37.583C45.7752 36.6753 44.6479 35.6878 43.5588 34.7385C42.0557 33.4315 40.1878 31.8068 40.3639 29.3925ZM37.7754 18.8786C37.7736 15.1438 36.6645 11.4933 34.5884 8.38859C32.5123 5.28392 29.5624 2.86445 26.1115 1.43601C22.6606 0.00757241 18.8637 -0.365702 15.2007 0.363373C11.5377 1.09245 8.17303 2.89114 5.53208 5.53208C2.89114 8.17303 1.09245 11.5377 0.363373 15.2007C-0.365702 18.8637 0.00757241 22.6606 1.43601 26.1115C2.86445 29.5624 5.28392 32.5123 8.3886 34.5884C11.4933 36.6645 15.1438 37.7736 18.8786 37.7754C23.8899 37.7739 28.6955 35.7826 32.239 32.239C35.7826 28.6955 37.7739 23.8899 37.7754 18.8786ZM20.2455 34.0904V32.1354C20.2455 31.7743 20.1021 31.428 19.8467 31.1727C19.5914 30.9174 19.2451 30.7739 18.8841 30.7739C18.523 30.7739 18.1767 30.9174 17.9214 31.1727C17.6661 31.428 17.5226 31.7743 17.5226 32.1354V34.0904C13.9615 33.7617 10.6278 32.1966 8.10011 29.6666C5.57245 27.1366 4.01037 23.8015 3.68497 20.24H5.63273C5.9938 20.24 6.34009 20.0966 6.59541 19.8413C6.85073 19.586 6.99417 19.2397 6.99417 18.8786C6.99417 18.5175 6.85073 18.1712 6.59541 17.9159C6.34009 17.6606 5.9938 17.5172 5.63273 17.5172H3.68497C4.0135 13.9596 5.57635 10.629 8.10267 8.10267C10.629 5.57635 13.9596 4.0135 17.5172 3.68497V5.63091C17.5196 5.93086 17.6225 6.22135 17.8094 6.45597C17.9963 6.69058 18.2564 6.85579 18.5482 6.92519C18.1271 9.64806 17.7187 13.9593 17.5063 16.6095C15.426 15.7201 12.3001 14.4603 10.1345 13.7233C10.1077 13.7144 10.0785 13.715 10.052 13.725C10.0255 13.735 10.0033 13.7538 9.98901 13.7783C9.97475 13.8028 9.96934 13.8314 9.9737 13.8594C9.97805 13.8874 9.99191 13.9131 10.0129 13.9321C12.6196 16.2156 17.401 19.8135 18.0908 20.211C18.1416 20.2321 18.1937 20.2497 18.2469 20.2636C18.2905 20.2836 18.334 20.2927 18.3794 20.309C18.5171 20.3589 18.6615 20.3877 18.8078 20.3943C18.8332 20.3943 18.8532 20.4089 18.8786 20.4089C18.9287 20.402 18.9784 20.3923 19.0275 20.3798C19.1377 20.3689 19.2465 20.347 19.3524 20.3145C19.4599 20.2757 19.5628 20.2252 19.6592 20.1638C19.7158 20.1303 19.7704 20.0933 19.8225 20.0531C19.9468 19.95 20.0535 19.8274 20.1384 19.69C20.1384 19.6737 20.1656 19.6646 20.1765 19.6465V19.6192C20.2687 19.4576 20.3302 19.2804 20.358 19.0964V19.0601C20.3739 19.0004 20.386 18.9398 20.3943 18.8786C20.3943 18.1652 19.808 10.8788 19.1999 6.92156C19.4912 6.85152 19.7508 6.68609 19.9373 6.45157C20.1238 6.21705 20.2265 5.92691 20.2292 5.62728V3.68497C23.7917 4.00776 27.1287 5.568 29.6608 8.09478C32.1929 10.6216 33.7601 13.9553 34.0904 17.5172H32.1372C31.7761 17.5172 31.4298 17.6606 31.1745 17.9159C30.9192 18.1712 30.7758 18.5175 30.7758 18.8786C30.7758 19.2397 30.9192 19.586 31.1745 19.8413C31.4298 20.0966 31.7761 20.24 32.1372 20.24H34.0904C33.7641 23.8024 32.2007 27.138 29.6717 29.668C27.1427 32.198 23.8077 33.7627 20.2455 34.0904Z" fill="#8B42C5"/>
</g>
</svg>
