<svg width="248" height="249" viewBox="0 0 248 249" fill="none" xmlns="http://www.w3.org/2000/svg">
<g opacity="0.5">
<path d="M273.128 0C274.714 0 276.001 1.28705 276.001 2.87307C276.001 14.8731 266.361 22.8611 255.474 22.8611V33.7188V48.7741V195.072H273.127C274.716 195.072 276.003 196.363 276 197.949V245.862C276 247.448 274.713 248.735 273.127 248.735C193.26 248.746 113.48 248.735 33.6643 248.735C32.0783 248.735 30.7912 247.448 30.7912 245.862V197.949C30.7912 196.36 32.0783 195.072 33.6643 195.072H51.313V180.344C51.3133 180.333 51.313 180.312 51.313 180.312C22.7523 178.811 0 155.117 0 126.176C0 97.2363 22.7521 73.5415 51.3119 72.0411V22.8718C38.1709 22.8718 30.7891 12.8778 30.7891 2.88379C30.7891 1.29777 32.0762 0.0107198 33.6623 0.0107198L273.128 0ZM269.677 5.74776H37.1123C38.4588 12.227 43.8612 17.1098 50.771 17.1098H256.022C262.932 17.1098 268.33 12.227 269.677 5.74776ZM249.727 22.8621H57.0668V30.8412C121.323 30.8092 185.425 30.8412 249.727 30.8412V22.8621ZM249.727 36.5933H222.409V48.7751C222.409 55.6507 228.346 61.3051 236.069 61.3051C243.792 61.3051 249.727 55.6507 249.727 48.7751V36.5933ZM216.658 36.5933H189.34V48.7751C189.34 55.6507 195.276 61.3051 202.998 61.3051C210.721 61.3051 216.658 55.6507 216.658 48.7751L216.658 36.5933ZM183.589 36.5933H156.271V48.7751C156.271 55.6507 162.207 61.3051 169.929 61.3051C177.652 61.3051 183.589 55.6507 183.589 48.7751V36.5933ZM150.519 36.5933H123.201V48.7031C123.201 48.7244 123.201 48.767 123.201 48.767C123.201 55.6429 129.138 61.2969 136.86 61.2969C144.583 61.2969 150.519 55.6429 150.519 48.767V36.5933ZM117.454 36.5933H90.1358V48.7751C90.1358 55.6507 96.0715 61.3051 103.794 61.3051C111.517 61.3051 117.454 55.6507 117.454 48.7751V36.5933ZM84.3845 36.5933H57.0668V48.7751C57.0668 55.6507 63.0023 61.3051 70.7252 61.3051C78.4477 61.3051 84.3845 55.6507 84.3845 48.7751V36.5933ZM120.328 58.347C116.891 63.5914 110.725 67.0515 103.794 67.0515C96.864 67.0515 90.6981 63.5917 87.2598 58.3479C83.8214 63.5917 77.6553 67.0515 70.7248 67.0515C65.4363 67.0515 60.5928 65.0366 57.0668 61.7519V72.0312C75.9619 73.0222 92.3142 83.7289 101.218 99.2427H149.976C151.565 99.2427 152.849 100.533 152.849 102.122V163.723C152.849 165.312 151.565 166.599 149.976 166.602H90.2549C81.338 174.57 69.7782 179.637 57.0652 180.303C57.0661 180.314 57.0652 180.335 57.0652 180.335V195.064H164.203V102.112C164.203 100.523 165.49 99.2325 167.079 99.2325H235.494C237.083 99.2325 238.373 100.52 238.373 102.112V195.064H249.727V61.7402C246.202 65.0264 241.358 67.0424 236.068 67.0424C229.138 67.0424 222.972 63.5826 219.534 58.3388C216.095 63.5826 209.928 67.0424 202.998 67.0424C196.068 67.0424 189.902 63.5826 186.463 58.3388C183.025 63.5826 176.859 67.0424 169.929 67.0424C162.999 67.0424 156.833 63.5826 153.394 58.3388C149.956 63.5826 143.79 67.0424 136.86 67.0424C129.929 67.0424 123.765 63.5914 120.328 58.347ZM54.1926 77.7015C27.4076 77.7015 5.75345 99.3667 5.75345 126.166C5.75345 152.967 27.4076 174.627 54.1926 174.627C83.4921 173.145 102.213 152.137 102.627 126.166C102.691 99.3007 81.7543 78.2809 54.1926 77.7015ZM54.3704 89.0814C56.6784 89.1995 57.9167 91.8509 56.5187 93.6914C55.8736 94.5674 55.616 95.153 55.5447 95.2477C55.6086 95.3328 55.8736 95.9311 56.5187 96.8042C57.2968 97.8601 58.6372 99.3222 58.6372 101.77C58.6372 104.217 57.2969 105.684 56.5187 106.741C55.8736 107.617 55.616 108.203 55.5447 108.297C55.6086 108.383 55.8736 108.981 56.5187 109.854C57.2968 110.91 58.6372 112.372 58.6372 114.82C58.6372 117.267 57.2969 118.734 56.5187 119.79C54.2432 122.878 49.6118 119.465 51.8872 116.378C52.5323 115.502 52.7899 114.913 52.8613 114.818C52.7974 114.733 52.5323 114.138 51.8872 113.262C51.1091 112.206 49.7687 110.744 49.7687 108.296C49.7687 105.849 51.109 104.382 51.8872 103.325C52.5323 102.449 52.7899 101.86 52.8613 101.769C52.7974 101.684 52.5323 101.085 51.8872 100.212C51.1091 99.1563 49.7687 97.6943 49.7687 95.246C49.7687 92.799 51.109 91.3321 51.8872 90.2755C52.4588 89.4793 53.3939 89.034 54.3704 89.0814ZM65.7288 95.6052C68.0368 95.7233 69.2752 98.3748 67.877 100.215C67.232 101.091 66.9744 101.68 66.9031 101.772C66.9669 101.857 67.232 102.455 67.877 103.328C68.6551 104.384 69.9957 105.852 69.9957 108.299C69.9957 110.746 68.6552 112.208 67.877 113.265C67.232 114.141 66.9744 114.729 66.9031 114.821C66.9669 114.906 67.232 115.505 67.877 116.381C70.259 119.481 65.5099 122.985 63.2501 119.793C62.472 118.737 61.1315 117.269 61.1315 114.823C61.1315 112.376 62.4719 110.913 63.2501 109.857C63.8952 108.981 64.1527 108.392 64.2208 108.3C64.157 108.215 63.8952 107.62 63.2501 106.744C62.472 105.688 61.1315 104.22 61.1315 101.773C61.1315 99.3261 62.4719 97.8634 63.2501 96.8071C63.8185 96.0109 64.7495 95.5578 65.7288 95.6052ZM42.7613 95.6052C43.7108 95.5839 44.6077 96.0341 45.161 96.8064C45.9391 97.8624 47.2737 99.3247 47.2737 101.773C47.2737 104.22 45.9392 105.687 45.161 106.743C44.5159 107.619 44.2583 108.205 44.187 108.3C44.2509 108.385 44.5148 108.983 45.161 109.856C45.9391 110.912 47.2737 112.374 47.2737 114.822C47.2737 117.269 45.9392 118.736 45.161 119.793C42.8856 122.881 38.2542 119.467 40.5297 116.38C41.1747 115.504 41.4323 114.915 41.5026 114.821C41.4387 114.735 41.1747 114.14 40.5297 113.264C39.7516 112.208 38.411 110.746 38.411 108.298C38.411 105.851 39.7515 104.384 40.5297 103.327C41.1747 102.451 41.4323 101.863 41.5026 101.771C41.4387 101.686 41.1747 101.088 40.5297 100.215C39.1123 98.3417 40.4122 95.6537 42.7613 95.6052ZM232.635 104.995H169.968V188.226H232.635V104.995ZM147.115 104.995H104.092C106.859 111.502 108.391 118.658 108.391 126.166C108.391 139.35 103.669 151.444 95.8276 160.848H147.115V104.995ZM116.176 114.698C116.921 114.719 117.632 115.032 118.153 115.568L140.489 137.916C143.368 140.627 139.127 144.861 136.422 141.978L114.087 119.634C112.205 117.805 113.555 114.621 116.176 114.698ZM198.505 123.221C199.251 123.242 199.961 123.555 200.481 124.09L215.379 138.997C218.09 141.707 214.024 145.774 211.313 143.063L196.415 128.156C194.533 126.327 195.884 123.143 198.505 123.221ZM71.8068 123.253C73.3928 123.253 74.68 124.54 74.68 126.126V136.279C74.68 140.186 73.6 143.844 71.7196 146.964C72.5956 147.23 73.4831 147.514 74.3411 147.872C75.5395 148.369 76.6936 148.964 77.7239 149.893C78.7532 150.822 79.7092 152.305 79.7092 154.048C79.7092 156.309 78.2594 157.865 76.7378 158.964C75.2169 160.062 73.3313 160.902 71.0931 161.63C66.6165 163.08 60.7271 163.991 54.2038 163.991C47.6805 163.991 41.786 163.083 37.31 161.63C35.073 160.905 33.1878 160.065 31.6651 158.964C29.9785 157.342 28.5924 155.924 28.6941 153.972C28.7793 152.019 29.8481 150.898 30.9666 149.982C31.9938 149.154 33.1414 148.55 34.3368 148.02C35.1447 147.662 35.9613 147.363 36.7661 147.087C36.5298 146.69 36.2956 146.286 36.0827 145.874H33.2303C28.3015 145.874 24.4525 141.601 24.4525 136.651C24.4525 131.7 28.3015 127.431 33.2303 127.431H33.7274V126.123C33.7274 124.537 35.0145 123.25 36.6006 123.25L71.8068 123.253ZM68.9337 129.005H39.4722C39.4722 131.431 39.4722 133.852 39.4722 136.28C39.5041 144.68 45.5418 151.174 54.2053 151.174C62.4 151.174 68.9337 144.594 68.9337 136.28V129.005ZM188.219 131.763C188.967 131.784 189.675 132.097 190.196 132.632L216.469 158.919C219.248 161.63 215.114 165.764 212.404 162.986L186.129 136.699C184.247 134.87 185.598 131.684 188.219 131.763ZM33.7252 133.186H33.2281C31.6185 133.186 30.2025 134.574 30.2025 136.654C30.2025 138.734 31.617 140.126 33.2281 140.126H34.086C33.6454 137.688 33.7252 135.688 33.7252 133.186ZM116.379 134.18C117.124 134.201 117.832 134.514 118.353 135.05L129.516 146.213C132.227 148.923 128.161 152.99 125.449 150.28L114.286 139.112C112.41 137.283 113.76 134.103 116.379 134.18ZM188.623 151.447C189.371 151.468 190.078 151.781 190.599 152.316L205.497 167.219C208.32 169.929 204.142 174.108 201.432 171.285L186.533 156.378C184.66 154.55 186.004 151.373 188.623 151.447ZM67.6007 151.876C64.0097 155.015 59.33 156.924 54.2053 156.924C49.0881 156.924 44.4126 155.021 40.8228 151.89C39.583 152.201 37.9764 152.698 36.6576 153.281C35.9029 153.615 35.3615 153.959 34.9295 154.257C35.9947 154.907 37.947 155.79 39.0845 156.163C42.8 157.367 48.2271 158.237 54.2042 158.237C60.1811 158.237 65.604 157.367 69.3192 156.163C70.8875 155.639 72.3782 154.952 73.7296 154.07C73.4304 153.834 72.8833 153.499 72.1377 153.189C70.8446 152.654 69.1393 152.21 67.6007 151.876ZM232.635 193.983H169.968C169.968 210.318 169.968 226.657 169.968 242.995H232.635C232.635 226.659 232.635 210.313 232.635 193.983ZM270.263 200.829C259.533 200.914 249.059 200.829 238.386 200.829V242.995H270.263V200.829ZM164.217 200.829H54.1671C54.1458 200.829 54.1352 200.829 54.1032 200.829H36.5511V242.995H42.3136C42.2817 240.989 42.5798 238.977 43.1131 237.061C44.9269 230.496 50.0158 225.653 56.1541 223.78C55.5506 215.939 60.6231 208.465 68.4777 206.313C70.6851 205.71 72.9132 205.582 75.0489 205.872C77.7652 206.24 80.3318 207.287 82.5217 208.867C84.38 206.648 87.1208 205.237 90.1002 204.892C91.5737 204.714 93.1071 204.807 94.6171 205.191C97.1173 205.821 99.2609 207.215 100.805 209.041C104.398 205.645 109.36 204.063 114.227 204.685C116.363 204.952 118.482 205.656 120.457 206.81C124.718 209.301 127.484 213.42 128.424 217.928C133.676 220.026 137.536 224.811 139.427 230.118C140.894 234.237 141.166 238.913 139.604 242.996H164.229L164.217 200.829ZM222.011 201.915C223.597 201.936 224.863 203.244 224.842 204.83V219.716C224.842 221.305 223.555 222.592 221.966 222.592C220.377 222.592 219.09 221.305 219.09 219.716V204.83C219.069 203.208 220.389 201.888 222.011 201.915ZM112.421 210.268C108.881 210.15 105.439 211.801 103.326 214.889C103.444 216.066 103.337 217.279 102.992 218.49C102.557 220.017 100.965 220.902 99.4388 220.467C97.912 220.031 97.0273 218.44 97.4623 216.914C97.6699 216.114 97.64 215.425 97.5261 214.724C97.112 212.946 95.5998 211.361 93.2317 210.764C90.4415 210.06 87.7947 211.187 86.591 213.072C87.565 214.534 88.322 216.171 88.7925 217.963C89.2428 219.516 88.3251 221.135 86.7625 221.545C85.1973 221.956 83.6039 220.995 83.2337 219.424C82.6983 217.74 81.9702 216.312 80.976 215.127C78.3782 212.114 74.2037 210.71 70.0208 211.856C64.9522 213.243 61.6786 217.923 61.8855 222.925C63.4863 222.932 65.1128 223.133 66.7278 223.55C70.5114 224.473 69.0329 230.154 65.281 229.115C63.4818 228.648 61.6743 228.559 59.941 228.801C59.8771 228.812 59.8228 228.822 59.7632 228.833C54.5977 229.614 50.1296 233.316 48.6721 238.595C48.2666 240.062 48.0717 241.591 48.0983 243H133.095C135.261 240.127 135.45 236.045 134.028 232.053C132.939 228.996 130.906 226.243 128.5 224.51C128.166 226.247 127.556 227.959 126.636 229.574C125.872 230.998 124.085 231.51 122.681 230.711C121.278 229.911 120.808 228.113 121.64 226.73C122.826 224.395 123.084 222.202 122.971 219.964C122.557 216.672 120.672 213.592 117.574 211.78C115.938 210.824 114.178 210.333 112.44 210.273L112.421 210.268Z" fill="#8B42C5"/>
</g>
</svg>
