<svg width="74" height="83" viewBox="0 0 74 83" fill="none" xmlns="http://www.w3.org/2000/svg">
<g opacity="0.5">
<path d="M18.9769 0C16.7836 0 14.9717 1.81186 14.9717 4.00515V16.9742C14.9717 19.1675 16.7836 20.9794 18.9769 20.9794C21.1702 20.9794 22.982 19.1675 22.982 16.9742V4.00515C22.982 1.81186 21.2656 0 18.9769 0Z" fill="#995ACC"/>
<path d="M55.0232 0C52.8299 0 51.0181 1.81186 51.0181 4.00515V16.9742C51.0181 19.1675 52.8299 20.9794 55.0232 20.9794C57.2165 20.9794 59.0284 19.1675 59.0284 16.9742V4.00515C59.0284 1.81186 57.2165 0 55.0232 0Z" fill="#995ACC"/>
<path d="M61.7938 10.4897H60.9356V16.9743C60.9356 20.3119 58.2655 22.982 54.9278 22.982C51.5902 22.982 48.9201 20.3119 48.9201 16.9743V10.4897H24.9845V16.9743C24.9845 20.3119 22.3144 22.982 18.9768 22.982C15.6392 22.982 12.9691 20.3119 12.9691 16.9743V10.4897H12.2062C5.43557 10.4897 0 16.0207 0 22.6959V70.1856C0 76.9562 5.53093 82.3918 12.2062 82.3918H61.7938C68.5644 82.3918 74 76.8609 74 70.1856V22.6959C74 15.9253 68.5644 10.4897 61.7938 10.4897ZM67.9923 70.1856C67.9923 73.6186 65.2268 76.3841 61.7938 76.3841H12.2062C8.7732 76.3841 6.00773 73.6186 6.00773 70.1856V27.9408H68.0876L67.9923 70.1856Z" fill="#995ACC"/>
<path d="M51.1135 35.0926C44.629 29.5617 32.9949 32.1364 25.1753 41.005C17.3558 49.8735 16.3068 61.7936 22.696 67.6106C29.1805 73.1416 40.8145 70.5668 48.6341 61.6983C56.5491 52.7344 57.6934 40.8143 51.1135 35.0926ZM46.5362 51.304C46.1547 51.4947 45.7733 51.7808 45.3918 51.7808C45.0104 51.8761 44.4382 52.1622 44.1522 52.2576C43.7707 52.3529 43.2939 52.3529 42.9125 52.5436C42.6264 52.639 42.1496 52.639 41.7681 52.9251C40.2424 53.1158 38.3351 52.9251 36.714 52.8297L36.4279 52.7344H36.2372H35.5697C35.2836 52.639 34.8068 52.639 34.4253 52.639C33.6625 52.5436 33.0903 52.639 32.232 52.8297C31.4692 52.7344 30.897 53.1158 30.1341 53.2112C29.4666 53.3065 28.8944 53.688 28.1315 53.7833C26.9872 54.2601 25.8429 55.1184 25.2707 55.9766C24.4125 56.8349 23.9357 57.8839 23.6496 58.9328C23.3635 59.9818 23.2681 60.9354 23.1728 61.889C23.2681 62.2704 23.0774 62.8426 23.1728 63.2241C23.2681 63.6055 23.0774 63.9869 23.1728 64.3684C23.0774 65.1313 23.1728 65.5127 23.3635 65.8942C23.4589 66.2756 23.3635 66.5617 23.3635 66.5617C23.3635 66.5617 23.2681 66.371 23.1728 66.1802C23.0774 65.7988 22.7913 65.2266 22.6006 64.7498C22.5052 64.3684 22.5052 64.0823 22.2192 63.7009C22.1238 63.3194 22.1238 62.8426 21.9331 62.3658C21.8377 61.4122 21.7424 60.1725 21.8377 59.1235C22.0284 57.8839 22.4099 56.3581 23.1728 55.3091C23.8403 54.0694 25.1753 52.7344 26.7011 52.0668C28.2269 51.304 29.6573 50.7318 31.4692 50.7318C32.3274 50.6364 32.9949 50.5411 33.9485 50.6364C34.33 50.5411 34.7114 50.7318 35.2836 50.6364H35.9511L36.2372 50.7318L37.0001 50.9225C38.7166 51.2086 40.0516 51.1132 41.3867 51.0179C42.7217 50.7318 44.0568 50.6364 45.2011 50.0643C46.3454 49.5875 47.3944 48.7292 48.0619 47.871C48.6341 46.9174 49.2063 45.8684 49.4924 44.8194C50.0645 42.7215 49.9692 40.7189 49.9692 39.3839C49.9692 38.0488 49.7784 37.1906 49.7784 37.1906C49.7784 37.1906 49.8738 37.3813 49.9692 37.572C50.0645 37.9534 50.3506 38.5256 50.5413 39.0024C50.6367 39.6699 50.9228 40.4328 51.0181 41.3864C51.1135 42.34 51.2089 43.5797 51.1135 44.6287C50.9228 45.8684 50.6367 47.1081 49.8738 48.5385C49.2063 49.3967 48.0619 50.5411 46.5362 51.304Z" fill="#995ACC"/>
</g>
</svg>
