<svg width="125" height="125" viewBox="0 0 125 125" fill="none" xmlns="http://www.w3.org/2000/svg">
<g opacity="0.5">
<path d="M58.2442 55.6271C58.2844 47.3264 55.6395 39.2071 50.6471 32.3606C45.936 25.3851 39.0786 19.9398 30.9911 16.736C23.0886 13.805 15.4752 14.2366 9.56679 17.9175C3.65793 21.5982 0.241366 28.0361 0.000163004 36.0491C-0.0239553 44.312 2.62891 52.3856 7.58922 59.1953C12.3083 66.1708 19.1577 71.6315 27.2452 74.8426C30.4609 76.0771 33.9018 76.7361 37.3747 76.7815C41.3943 76.827 45.3336 75.7363 48.694 73.6611C54.5948 70.0559 57.9949 63.6174 58.2442 55.6271ZM20.8865 20.4171C23.6278 20.455 26.337 20.9776 28.8694 21.947C35.8555 24.7341 41.7563 29.4753 45.7922 35.5191C50.0931 41.3887 52.4003 48.3566 52.3923 55.4915C52.4325 59.407 51.1302 63.2318 48.6701 66.3901C46.6121 60.1492 41.491 49.1372 30.5175 43.5327C20.0826 38.1781 15.8218 26.3327 14.5034 21.7591H14.5115C16.5052 20.873 18.6835 20.4171 20.8865 20.4171ZM29.3839 69.8196C22.414 67.0174 16.5051 62.2838 12.4532 56.2475C8.14407 50.378 5.83699 43.41 5.84502 36.2752C5.81286 32.3672 7.12325 28.5499 9.59128 25.3993C11.6493 31.6628 16.7704 42.6521 27.7198 48.2799C38.1708 53.6345 42.4316 65.4572 43.7339 70.0535C39.1193 71.8333 33.9343 71.7509 29.3839 69.8196ZM124.367 17.916C122.719 10.062 118.193 4.34386 111.753 1.54916C98.7299 -3.88123 81.7018 5.42691 73.7845 22.2563H73.7765C70.0944 29.7619 68.9127 38.1384 70.4 46.2809C72.0641 54.0364 76.5742 59.853 83.0136 62.6477H83.0216C85.5137 63.6778 88.2149 64.2079 90.9404 64.2003C102.3 64.2003 114.608 55.5359 120.992 41.9421C124.69 34.4441 125.864 26.06 124.368 17.9175L124.367 17.916ZM76.1243 45.2347C74.8702 38.1912 75.9153 30.9582 79.1309 24.4907C84.5413 12.9559 94.6467 5.48818 103.667 5.48818H105.17C100.7 10.5324 93.5857 20.5145 94.4861 32.2621C95.3303 43.4333 87.0337 53.1806 83.6413 56.6958C79.5733 54.0071 76.8561 49.8644 76.1246 45.2366L76.1243 45.2347ZM115.661 39.7514C109.857 51.9223 98.988 59.5647 89.6313 58.6327C94.0771 53.5885 101.2 43.6291 100.315 31.8743C99.4472 20.7258 107.744 10.9558 111.144 7.44063L111.136 7.4482C115.212 10.1444 117.929 14.3101 118.645 18.9603C119.923 26.0114 118.877 33.2676 115.661 39.7514ZM60.0942 76.8013C52.1513 80.3231 45.5431 86.0488 41.1377 93.1984C37.0216 100.234 36.5713 107.392 39.6986 113.382C42.8259 119.373 49.185 123.364 57.5619 124.591C59.3948 124.864 61.2439 125 63.1009 125C69.9906 124.917 76.7676 123.349 82.9177 120.425C100.451 112.284 109.672 95.8793 103.313 83.8603C96.9544 71.8332 77.6927 68.675 60.1581 76.8016L60.0942 76.8013ZM46.2665 95.8416C50.1013 89.669 55.8412 84.7536 62.7309 81.747C68.1092 79.1795 74.0422 77.801 80.0797 77.7103C85.7794 77.4452 91.3508 79.331 95.5712 82.9437C88.7218 84.11 76.4941 87.4802 69.187 97.0232C62.2491 106.097 49.2416 108.656 44.2414 109.217H44.2495C42.9632 104.68 43.7108 99.8408 46.3236 95.8418L46.2665 95.8416ZM80.4096 115.496C73.6808 118.791 66.0514 120.063 58.5263 119.162C54.4102 118.7 50.5674 116.988 47.5608 114.299C54.4102 113.133 66.6379 109.763 73.9224 100.22C80.8763 91.1465 93.8838 88.5866 98.8844 88.026C102.02 97.1599 94.1567 109.043 80.4096 115.496Z" fill="#D1EAC8"/>
</g>
</svg>
