<svg width="215" height="275" viewBox="0 0 215 275" fill="none" xmlns="http://www.w3.org/2000/svg">
<g opacity="0.5">
<path d="M126.794 157.853L123.571 159.997C118.49 163.37 111.628 161.999 108.263 156.901L104.899 151.844C102.992 160.343 109.896 169.275 120.448 171.824C128.402 173.754 136.197 171.577 140.463 166.709L135.799 159.672C133.815 156.7 129.753 155.874 126.777 157.846L126.794 157.853Z" fill="#D1EAC8"/>
<path d="M128.041 140.725C119.473 138.627 111.124 141.356 107.09 146.976L112.038 154.422C114.023 157.393 118.076 158.196 121.047 156.212L124.271 154.068C129.351 150.695 136.226 152.102 139.578 157.164L143.079 162.413C143.268 161.967 143.431 161.49 143.538 161.006C145.651 152.406 138.699 143.343 128.041 140.725Z" fill="#D1EAC8"/>
<path d="M162.366 24.1832L148.892 29.0874L144.087 15.8872C143.559 14.435 141.995 13.6563 140.52 14.0853L19.1173 50.0765C18.3664 50.3094 17.7118 50.8442 17.3386 51.5597C16.9774 52.2708 16.9322 53.1095 17.2095 53.8713L24.648 74.3085L11.1738 79.2127C9.66215 79.7629 8.88236 81.4351 9.43257 82.9468L16.5506 102.503C17.1008 104.015 18.773 104.795 20.2847 104.245L31.1283 100.298L84.3539 220.683L84.3583 220.695L102.343 262.664C102.955 264.086 104.573 264.791 106.025 264.263L208.665 226.905C210.117 226.376 210.904 224.796 210.459 223.313L197.259 179.603L197.254 179.591L160.645 53.1575L171.501 49.2064C173.012 48.6562 173.792 46.984 173.242 45.4723L166.124 25.9158C165.574 24.4041 163.902 23.6243 162.39 24.1745L162.366 24.1832ZM189.001 172.136L85.8611 209.676L55.852 141.782L168.359 100.832L189.012 172.132L189.001 172.136ZM53.4743 136.432L36.6255 98.3251L155.132 55.1922L166.72 95.2141L53.4743 136.432ZM204.069 222.389L106.621 257.857L89.706 218.384L89.7017 218.372L89.693 218.348L88.2321 215.038L190.631 177.768L191.64 181.242L191.649 181.266L191.653 181.278L204.069 222.389ZM23.7468 54.7943L139.54 20.4671L143.405 31.0846L30.1239 72.3154L23.7468 54.7943ZM166.746 44.7365L21.019 97.7767L15.8982 83.7074L161.613 30.6717L166.733 44.7409L166.746 44.7365Z" fill="#D1EAC8"/>
</g>
</svg>
