<svg width="53" height="53" viewBox="0 0 53 53" fill="none" xmlns="http://www.w3.org/2000/svg">
<g opacity="0.5">
<path d="M28.6215 10.1759C31.5856 9.35521 33.2584 6.44637 32.3488 3.69274C31.4418 0.939293 28.3339 -0.614675 25.3696 0.230311C22.4055 1.05099 20.7327 3.95983 21.6423 6.71346C22.5258 9.46691 25.6572 11.0209 28.6215 10.1759Z" fill="#D1EAC8"/>
<path d="M27.9992 36.8824C27.9992 36.8824 27.9521 36.8168 27.9286 36.7925C27.8319 36.0593 27.1888 35.4595 26.3524 35.4595H11.367C9.71765 35.4595 8.25912 34.4835 7.75727 33.063L3.14386 18.9437C2.87986 18.1667 1.99641 17.7224 1.13643 17.9457C0.300002 18.1909 -0.178301 19.0116 0.0621217 19.8105L4.67553 33.9516C5.41527 36.0373 7.23186 37.5913 9.43012 38.1692L4.67553 51.0236C4.388 51.8006 4.84281 52.6431 5.67924 52.9102C5.84653 52.9539 6.03734 53.0001 6.20463 53.0001C6.87377 53.0001 7.49587 52.6237 7.7102 52.0021L12.7288 38.4391H25.1548L30.1733 52.0021C30.4112 52.6237 31.0333 53.0001 31.6789 53.0001C31.8462 53.0001 32.037 52.9782 32.2043 52.9102C33.0407 52.6431 33.4955 51.8006 33.208 51.0236L27.9751 36.8607L27.9992 36.8824Z" fill="#D1EAC8"/>
<path d="M51.2753 10.4649H44.0586C43.5803 10.4649 43.1986 10.8194 43.1986 11.2637V13.9055C43.0548 13.9492 42.9111 13.971 42.7673 14.0609L36.3138 17.6787C32.8243 15.792 24.4833 11.3074 24.4833 11.3074C23.5032 10.6421 19.896 11.0185 18.7486 10.9311C18.678 10.9311 18.6519 10.9529 18.5813 10.9529C16.4066 10.9966 14.4697 12.3734 13.9679 14.4153L10.3346 28.5782H10.4052C9.63937 30.4867 10.6195 33.041 13.5601 33.1964C15.7818 33.2401 18.0062 33.1964 20.228 33.1527C20.3247 33.1527 20.4188 33.1964 20.539 33.1964L28.9501 33.4416C31.7234 37.97 39.7769 51.1351 39.7769 51.1351C41.1151 53.3326 44.7719 51.5795 43.6244 49.2922C43.6244 49.2922 37.1473 36.2607 35.0694 32.065C39.3483 34.7067 45.2739 38.371 45.2739 38.371C47.4956 39.7476 49.9343 36.7514 47.8799 35.1513L34.5438 24.6962C33.9453 24.23 33.1585 24.0091 32.3456 24.1183L32.0345 24.1621C32.0345 24.1621 26.5141 24.9609 24.1487 25.2935L25.8921 18.4778L34.8787 23.317L35.0695 23.4287C36.0026 23.9386 37.2442 23.873 38.1042 23.1616L44.5317 18.0772C45.3445 18.8323 46.4424 19.2767 47.6866 19.2767C50.1488 19.2767 52.1562 17.4119 52.1562 15.1247V11.2616C52.1562 10.8173 51.7746 10.4628 51.2962 10.4628L51.2753 10.4649Z" fill="#D1EAC8"/>
<path d="M44.2025 8.50995C44.3933 8.59979 44.5841 8.64349 44.7749 8.64349C45.18 8.64349 45.5878 8.44439 45.8022 8.08747L47.4044 5.40202C47.7155 4.87027 47.5247 4.22443 46.9496 3.91363C46.4007 3.62469 45.6819 3.80194 45.3473 4.33612L43.7451 7.02156C43.434 7.55331 43.6248 8.19916 44.1999 8.50995H44.2025Z" fill="#D1EAC8"/>
<path d="M52.3995 3.93823C51.8506 3.64929 51.1318 3.82654 50.7972 4.36072L49.1949 7.04616C48.8839 7.57791 49.0747 8.22376 49.6497 8.53455C49.8406 8.62439 50.0314 8.66809 50.2222 8.66809C50.6273 8.66809 51.0351 8.46899 51.2494 8.11206L52.8517 5.42662C53.1628 4.89487 52.972 4.24902 52.3969 3.93823H52.3995Z" fill="#D1EAC8"/>
</g>
</svg>
