<svg width="140" height="182" viewBox="0 0 140 182" fill="none" xmlns="http://www.w3.org/2000/svg">
<path d="M136.714 47.192C134.533 32.0385 131.87 28.0658 129.981 26.5327C119.286 12.4439 99.0451 2.4254 77.0587 0.369657C67.398 -0.536778 58.2187 0.239547 50.0868 2.52515C48.7272 2.67695 47.4326 2.88078 46.2442 3.13667C41.3477 4.19056 38.0668 5.96223 36.692 8.24566C34.3001 9.70073 32.0947 11.3423 30.0932 13.1552L30.078 13.1421L30.0412 13.2007C30.0108 13.2267 29.9804 13.2506 29.9501 13.2788L29.9739 13.3048L28.9894 14.8357C19.602 29.4385 13.142 68.4498 20.1376 80.4438C23.5595 86.3096 31.9408 88.3415 39.7409 88.8728V101.225H44.659V104.007H54.8597V101.225H59.7323L59.7735 87.4828C60.6019 87.2573 61.5669 86.9407 62.6381 86.5633L62.727 109.922C58.943 109.185 54.8814 108.797 50.7829 108.797C43.6052 108.797 36.8806 109.983 34.0486 111.746C32.3181 112.824 32.1793 116.458 33.5953 122.489C28.9873 123.827 24.8714 125.525 21.764 127.429L20.9248 127.526C14.8031 128.238 9.29292 131.625 5.41129 137.061C0.775031 143.556 -1.06603 152.345 0.608056 159.998C2.93703 170.647 30.6028 181.912 54.4303 181.912C66.8537 181.912 77.783 179.024 86.0384 173.559C113.503 155.376 135.422 139.531 138.154 135.882C140.993 132.106 140.592 74.1291 136.714 47.192ZM76.7139 4.05611C92.2143 5.50467 106.756 11.0582 117.369 19.2118C112.518 17.3772 106.552 16.2019 98.5138 16.2019C90.8742 16.2019 81.7947 17.2558 70.9782 19.4004C72.301 19.0448 73.55 18.6523 74.5974 18.1752C78.8173 16.2539 79.7194 13.8404 79.7324 12.162C79.752 10.5052 78.9106 8.07652 74.8056 5.90801C73.112 5.01459 71.1452 4.29682 68.9224 3.72C71.4704 3.70698 74.0683 3.8089 76.7139 4.05611ZM72.5937 9.51207C72.6718 9.5511 72.7629 9.58146 72.8388 9.62266C74.9747 10.7525 75.532 11.7456 75.5299 12.1208C75.5255 12.6087 74.6863 13.5151 72.8561 14.3478C70.2756 15.521 66.4634 16.2865 62.1242 16.5033C56.8048 16.7679 51.3164 16.1846 46.9642 14.9247C46.203 14.7035 45.5416 14.4736 44.9236 14.2416C51.0258 8.53407 61.8401 6.69952 72.5937 9.51207ZM40.2613 10.4705C42.612 9.17161 45.1361 8.05483 47.8099 7.12238C50.2668 6.65181 53.1227 6.39159 56.1565 6.39159C57.5573 6.39159 58.9213 6.46315 60.2636 6.56941C53.3656 7.0313 47.2114 9.39931 43.1736 13.4826C41.029 12.4157 40.1442 11.3748 40.1616 10.8132C40.1637 10.7113 40.1984 10.5963 40.2613 10.4705ZM36.4187 12.8429C37.529 15.367 40.7362 17.4965 45.7953 18.9624C49.8201 20.1291 54.7144 20.7688 59.574 20.7688C60.4935 20.7688 61.4151 20.7471 62.3324 20.7015C64.0498 20.6148 65.6675 20.4218 67.2223 20.1789C66.8927 20.2505 66.5783 20.3112 66.2443 20.3828C57.978 21.4237 52.8582 21.8704 49.1283 21.8704C41.4323 21.8704 38.9537 19.9924 33.0901 15.4624C34.1461 14.5408 35.2477 13.6604 36.4187 12.8429ZM21.9028 52.6848C26.513 57.0066 39.0903 57.5401 44.9843 57.5401C52.8365 57.5401 62.0244 56.5924 65.9082 54.8186L66.1684 63.6639C37.182 74.0858 27.8206 66.0254 21.7249 60.3938L21.9028 52.6848ZM21.6686 62.7011C25.6066 66.2184 31.3509 70.4058 42.2325 70.4058C48.3802 70.4058 56.1933 69.0462 66.2183 65.492L66.5002 75.1223C65.7586 76.3128 55.1611 80.0492 43.5032 80.0492C43.5032 80.0492 43.5011 80.0492 43.4989 80.0492C34.7143 80.0492 23.772 77.9088 21.5471 67.9207L21.6686 62.7011ZM64.3751 85.9301C64.6895 85.813 65.0408 85.6764 65.3683 85.5528L65.416 110.547C65.1037 110.469 64.7849 110.397 64.4662 110.324L64.3751 85.9301ZM67.1096 84.8849C67.8447 84.6008 68.5972 84.3081 69.3908 83.9958C78.8911 80.2834 91.9064 75.196 101.277 75.196C101.285 75.196 101.294 75.196 101.305 75.196L100.066 131.211L76.5577 124.892C77.5834 122.587 77.2452 120.897 76.625 119.796C75.4106 117.64 72.6111 116.586 68.8292 116.81C68.8574 114.548 68.4107 112.522 67.1594 111.321L67.1096 84.8849ZM49.1023 149.368C47.4651 149.237 45.9124 149.031 44.4118 148.78L87.4241 141.342C85.6503 142.229 83.8764 143.046 82.1091 143.775L49.1023 149.368ZM80.0382 144.566C69.6619 148.509 59.6131 149.86 51.0843 149.472L80.0382 144.566ZM43.1584 148.557C42.3604 148.4 41.595 148.227 40.8447 148.04L93.3571 138.041C91.7915 138.991 90.2258 139.872 88.6537 140.691L43.1584 148.557ZM39.8623 147.785C38.9602 147.535 38.1058 147.262 37.2861 146.967L97.3038 135.515C96.3323 136.183 95.3565 136.79 94.3763 137.402L39.8623 147.785ZM36.4729 146.679C35.8788 146.449 35.3258 146.199 34.7815 145.948L55.2544 141.841C55.9157 141.83 56.5815 141.828 57.2385 141.799C57.8132 141.776 58.4074 141.52 59.0059 141.086L99.7152 132.919L100.565 133.147C99.7586 133.757 98.9475 134.34 98.1344 134.908L36.4729 146.679ZM36.6421 132.286L31.4984 133.377C32.7648 132.562 34.3565 131.811 36.2149 131.137C36.3537 131.521 36.499 131.902 36.6421 132.286ZM36.7982 132.7C36.9912 133.201 37.1929 133.7 37.3946 134.19L28.6403 135.992C29.1109 135.307 29.7658 134.648 30.5941 134.017L36.7982 132.7ZM37.5702 134.598C37.7415 134.999 37.9107 135.389 38.0841 135.773L27.8358 137.911C27.9182 137.432 28.0873 136.962 28.3389 136.497L37.5702 134.598ZM38.275 136.183C38.5395 136.747 38.8041 137.285 39.0708 137.779L27.9898 140.036C27.8033 139.484 27.7295 138.928 27.7621 138.373L38.275 136.183ZM39.2963 138.18C39.7647 139.006 40.231 139.685 40.6842 140.18L29.5706 142.493C28.9374 141.825 28.4668 141.14 28.1654 140.448L39.2963 138.18ZM41.0572 140.548C41.3933 140.837 41.7207 141.023 42.0308 141.038C43.0088 141.173 43.9955 141.244 44.98 141.346L31.4659 144.102C30.8956 143.699 30.3729 143.289 29.9306 142.869L41.0572 140.548ZM46.422 141.494C48.6361 141.689 50.8501 141.81 53.0577 141.834L34.1201 145.633C33.8621 145.505 33.5715 145.395 33.3264 145.26C32.8364 144.996 32.3788 144.723 31.9516 144.443L46.422 141.494ZM76.2867 126.626L78.7588 127.29L74.4131 128.196C74.4955 128.097 74.5736 128.01 74.6581 127.908C74.9747 127.52 75.2284 127.156 75.4757 126.793L76.2867 126.626ZM72.9233 123.916L68.055 122.608C68.2003 121.951 68.3435 121.27 68.4627 120.559C71.1582 120.297 72.9732 120.863 73.3982 121.615C73.6194 122.01 73.5479 122.786 72.9233 123.916ZM67.2549 125.705C67.3568 125.36 67.4695 124.961 67.5845 124.534L68.1006 124.425L70.5705 125.091L67.2245 125.8C67.2332 125.77 67.2462 125.735 67.2549 125.705ZM67.0684 126.282L71.5008 125.341L71.8825 125.442C71.8478 125.488 71.8217 125.525 71.787 125.57C71.323 126.141 70.7418 126.804 70.1151 127.453L66.4265 128.214C66.6629 127.55 66.871 126.911 67.0684 126.282ZM66.2465 128.693L69.5578 128.012C68.8964 128.65 68.2003 129.22 67.5194 129.634L65.7564 130.003C65.9299 129.56 66.0882 129.127 66.2465 128.693ZM73.9469 128.739L79.6934 127.539L83.8396 128.654L71.6352 131.141C72.379 130.463 73.1489 129.665 73.9469 128.739ZM64.1279 133.763C64.6635 133.934 65.2013 134.038 65.7521 134.038C67.3915 134.038 69.1154 133.273 70.9869 131.722L84.785 128.91L89.1568 130.085L63.2518 135.48C63.5511 134.923 63.8438 134.351 64.1279 133.763ZM62.9656 135.986L90.0914 130.337L93.934 131.369L61.7946 137.92C62.1936 137.317 62.5839 136.669 62.9656 135.986ZM61.4368 138.436L94.8751 131.621L98.7654 132.666L59.6846 140.507C60.2723 139.956 60.8599 139.254 61.4368 138.436ZM50.7786 110.54C55.5775 110.54 60.294 111.106 64.5681 112.134C64.039 112.438 63.2236 112.781 61.9095 113.108C54.9009 114.867 41.3542 114.426 36.4491 112.544C39.2942 111.469 44.5268 110.54 50.7786 110.54ZM34.6774 113.611C37.4466 115.166 43.9066 115.953 50.3102 115.953C54.8098 115.953 59.2596 115.567 62.3324 114.799C64.2298 114.325 65.5309 113.72 66.3289 112.987C67.5454 114.877 67.2982 119.457 65.5851 125.208C63.1173 133.483 59.0341 139.987 57.167 140.062C52.2792 140.255 47.2135 140.002 42.2824 139.323C40.6278 138.59 34.9593 124.84 34.3933 116.781C34.2654 114.947 34.4736 114.047 34.6774 113.611ZM22.5815 131.315C25.483 129.285 29.6942 127.453 34.5343 126.05C34.9442 127.424 35.4711 129.049 36.0674 130.714C29.2019 133.204 27.504 136.155 27.3262 138.224C27.1007 140.861 29.1586 143.495 33.1204 145.644C37.0563 147.776 42.6141 149.292 49.1652 149.795H49.1717C50.7048 149.914 52.2748 149.994 53.9121 149.994C62.4191 149.994 72.2142 148.307 82.2089 144.198L82.3477 144.174L82.3433 144.144C84.5248 143.242 86.715 142.227 88.9052 141.084L88.9464 141.077L88.9442 141.064C90.8438 140.073 92.7391 138.978 94.6279 137.794L94.6539 137.79L94.6517 137.779C96.8246 136.417 98.9822 134.927 101.118 133.297L111.703 136.142C111.685 136.2 111.666 136.283 111.651 136.328C109.601 144.525 79.6652 155.934 53.0013 155.936C52.9991 155.936 52.9991 155.936 52.9969 155.936C43.3341 155.936 30.605 154.349 24.8346 146.781C21.8616 142.886 21.1243 137.675 22.5815 131.315ZM101.795 131.677L103.042 75.285C105.423 75.478 107.364 76.0483 108.788 77.0306C118.174 83.5036 113.85 124.679 112.071 134.437L101.795 131.677ZM135.09 133.787C132.54 136.86 112.531 151.579 83.987 170.476C76.3431 175.537 66.1186 178.211 54.426 178.211C29.4513 178.211 5.82548 166.538 4.22295 159.206C2.76572 152.544 4.37475 144.885 8.42334 139.212C10.401 136.443 13.7015 133.104 18.6825 131.722C17.3424 138.664 18.418 144.475 21.8898 149.025C28.5796 157.797 42.4971 159.638 52.9969 159.638C52.9991 159.638 53.0013 159.638 53.0013 159.638C77.7309 159.635 112.358 148.767 115.181 137.428C115.983 135.29 124.122 83.1024 110.894 73.9795C108.5 72.3293 105.262 71.4922 101.277 71.4922C91.2082 71.4922 77.8198 76.7248 68.0442 80.5457C63.7245 82.2328 59.9947 83.6922 58.004 84.1064C55.1503 84.6984 50.115 85.3316 44.5398 85.3316C38.0928 85.3316 26.7646 84.4534 23.3383 78.5789C22.5468 77.2214 21.9591 75.1527 21.5666 72.583C25.0579 78.5594 32.6477 81.7926 43.5011 81.7926C43.5011 81.7926 43.5032 81.7926 43.5054 81.7926C54.3176 81.7926 65.6372 78.5225 67.6994 76.4017C68.0442 76.0461 68.2155 75.6688 68.2025 75.2785L67.5476 51.1734L66.1056 52.6718C64.6548 54.1811 55.8203 55.7966 44.9843 55.7966C31.7369 55.7966 22.7073 53.3354 21.9613 49.521C23.4012 38.4356 26.4349 26.6823 31.0582 18.5677C37.0975 23.23 40.2852 25.5698 49.1305 25.5698C53.075 25.5698 58.1688 25.1296 66.871 24.0259C79.7021 21.2502 90.0523 19.9014 98.5138 19.9014C113.65 19.9014 120.888 24.362 127.557 29.3322C130.465 31.5007 132.49 41.2698 133.847 54.0314L121.866 60.6757L123.467 131.56L135.938 123.92C135.741 129.127 135.443 132.698 135.09 133.787Z" fill="#612F2B"/>
</svg>
