<svg width="232" height="218" viewBox="0 0 232 218" fill="none" xmlns="http://www.w3.org/2000/svg">
<g opacity="0.5">
<path d="M137.341 115.4C137.109 115.4 136.861 115.366 136.612 115.267C135.486 114.869 134.907 113.643 135.304 112.516C135.337 112.433 138.318 103.996 139.991 94.9961C142.011 84.2224 141.283 76.9958 138.02 75.1892C137.159 74.7085 136.728 73.714 136.977 72.7693C137.225 71.8245 138.086 71.1615 139.063 71.1615C145.704 71.1615 154.58 74.8411 159.184 92.3441C161.801 102.289 161.834 112.068 161.834 112.482C161.834 113.676 160.873 114.637 159.681 114.637C158.489 114.637 157.528 113.676 157.528 112.482C157.528 112.151 157.346 82.8136 144.263 76.6146C144.81 78.1063 145.174 79.8301 145.323 81.8191C145.621 85.565 145.257 90.2888 144.214 95.8414C142.475 105.156 139.477 113.61 139.362 113.958C139.047 114.853 138.219 115.4 137.341 115.4Z" fill="#612F2B"/>
<path d="M226.005 173.328C225.293 173.328 224.598 172.98 224.2 172.334C216.914 161.013 210.041 156.406 200.486 156.406H188.927C187.734 156.406 186.774 155.444 186.774 154.251C186.774 153.058 187.734 152.096 188.927 152.096H200.486C211.565 152.096 219.745 157.45 227.827 169.997C228.473 170.991 228.175 172.334 227.181 172.98C226.8 173.212 226.403 173.328 226.005 173.328Z" fill="#612F2B"/>
<path d="M66.198 29.2604C65.2375 29.2604 64.3598 28.614 64.1114 27.6361C62.3394 20.7575 59.5904 12.9011 57.4541 10.8955C52.9166 6.60264 49.174 6.25457 40.96 5.47556C38.2276 5.22693 35.1308 4.92859 31.4213 4.43135C30.2455 4.2656 29.4175 3.18824 29.5665 2.01143C29.7321 0.834616 30.8086 0.00587896 31.9843 0.155052C35.6111 0.635721 38.6582 0.934064 41.3575 1.18269C49.737 1.9617 54.7879 2.44237 60.4184 7.76288C64.012 11.1607 67.1088 22.0504 68.2846 26.5587C68.5827 27.7189 67.8871 28.8792 66.7445 29.1775C66.5457 29.2438 66.3636 29.2604 66.198 29.2604Z" fill="#612F2B"/>
<path d="M180.415 150.174C179.023 150.174 177.583 150.107 176.092 149.958C174.917 149.842 174.039 148.781 174.155 147.604C174.271 146.411 175.331 145.549 176.506 145.665C183.594 146.361 193.216 145.499 198.813 137.527C202.407 132.405 202.672 127.615 199.509 124.433C196.296 121.184 190.599 120.654 186.79 123.256C185.813 123.936 184.472 123.67 183.793 122.693C183.114 121.715 183.379 120.372 184.356 119.692C189.887 115.913 197.886 116.659 202.572 121.4C204.742 123.604 205.934 126.405 206.017 129.505C206.1 132.886 204.858 136.416 202.34 140.013C197.654 146.693 190.119 150.174 180.415 150.174Z" fill="#612F2B"/>
<path d="M169.269 156.373H118.313C117.817 156.373 117.353 156.207 116.972 155.892C108.891 149.411 103.459 139.964 101.24 128.577C99.567 120.041 100.279 113.444 100.312 113.179C100.428 112.085 101.356 111.273 102.449 111.273H185.151C186.194 111.273 187.072 112.018 187.271 113.03C187.32 113.278 188.43 119.411 186.956 127.748C185.581 135.439 181.657 146.56 170.677 155.875C170.28 156.19 169.783 156.373 169.269 156.373ZM119.075 152.063H168.458C176.142 145.334 180.911 136.897 182.683 126.985C183.578 121.947 183.429 117.803 183.23 115.582H104.469C104.386 118.035 104.436 122.593 105.479 127.897C107.483 138.057 112.07 146.196 119.075 152.063Z" fill="#612F2B"/>
<path d="M181.855 166.947H106.605C96.8346 166.947 89.9455 155.809 89.664 155.328C89.2665 154.665 89.2499 153.837 89.6308 153.157C90.0117 152.477 90.7238 152.063 91.5022 152.063H196.958C197.72 152.063 198.416 152.461 198.797 153.107C199.177 153.754 199.211 154.566 198.863 155.229C198.598 155.71 192.537 166.947 181.855 166.947ZM95.8078 156.373C98.2091 159.141 102.134 162.638 106.605 162.638H181.839C186.823 162.638 190.649 159.107 192.868 156.373H95.8078Z" fill="#612F2B"/>
<path d="M36.2072 90.5872C35.5448 90.5872 34.899 90.2889 34.4684 89.7087C29.6162 83.0954 27.6952 74.4102 29.02 65.2443C29.1856 64.0675 30.2786 63.2554 31.4544 63.4211C32.6302 63.5869 33.4417 64.6808 33.2761 65.8576C32.1003 73.8964 33.7563 81.4711 37.9295 87.1562C38.6416 88.1175 38.4263 89.4601 37.4658 90.1728C37.1015 90.4546 36.6544 90.5872 36.2072 90.5872Z" fill="#612F2B"/>
<path d="M85.4908 41.6086C84.464 41.6086 83.5532 40.8627 83.371 39.8185C81.9965 31.8626 74.445 26.8405 65.4196 27.8847C64.2439 28.0173 63.1674 27.172 63.035 25.9951C62.9025 24.8183 63.747 23.741 64.9228 23.6084C70.3381 22.9785 75.6042 24.1719 79.7443 26.9565C83.9506 29.7908 86.7328 34.1002 87.6105 39.0892C87.8092 40.266 87.0309 41.3765 85.8551 41.5754C85.7392 41.592 85.6232 41.6086 85.4908 41.6086Z" fill="#612F2B"/>
<path d="M64.0286 136.284C60.435 136.284 56.858 134.925 54.1255 132.19L31.9347 109.98C26.4698 104.51 26.4698 95.6093 31.9347 90.1396L93.7544 28.2659C94.1518 27.8682 94.6983 27.6361 95.2779 27.6361C95.8575 27.6361 96.404 27.8682 96.8015 28.2659L141.266 72.7693C141.763 73.2665 141.995 73.9958 141.862 74.6919C141.73 75.3881 141.266 75.9848 140.604 76.2665L121.493 84.6037L73.9482 132.19C71.2158 134.925 67.6222 136.284 64.0286 136.284ZM95.2779 32.8406L34.9818 93.1894C31.1894 96.985 31.1894 103.134 34.9818 106.93L57.1726 129.14C59.0108 130.98 61.4452 131.991 64.0286 131.991C66.612 131.991 69.0629 130.98 70.8846 129.14L118.711 81.2721C118.91 81.0732 119.125 80.9241 119.373 80.8246L135.967 73.5814L95.2779 32.8406Z" fill="#612F2B"/>
<path d="M25.4099 62.9239C24.9296 62.9239 24.4328 62.7581 24.0354 62.4266L8.08779 49.1005C3.55026 45.4209 0.718439 40.1832 0.122267 34.3655C-0.490465 28.5477 1.21525 22.8294 4.89164 18.2879C4.90821 18.2714 4.92476 18.2548 4.94132 18.2382L15.0431 6.58613C18.3055 2.82365 22.843 0.503183 27.8111 0.0722387C32.7792 -0.358706 37.6314 1.1496 41.5065 4.29881L63.7305 22.4814C64.6579 23.2272 64.7904 24.5864 64.0286 25.5145C63.2834 26.4427 61.9254 26.5753 60.998 25.8129L38.7575 7.64692C32.5308 2.57503 23.5386 3.33747 18.2724 9.42042L8.18715 21.0394C5.23941 24.6858 3.89802 29.2605 4.37827 33.918C4.85852 38.5921 7.14385 42.802 10.7871 45.7524L10.8037 45.7689L26.7678 59.0951C27.6787 59.8575 27.8111 61.2166 27.0494 62.1283C26.6354 62.6586 26.0226 62.9239 25.4099 62.9239Z" fill="#612F2B"/>
<path d="M65.6349 43.5977C63.6808 43.5977 61.7929 42.9347 60.2528 41.675L49.7039 33.1887C48.7765 32.4429 48.6275 31.0837 49.3727 30.1555C50.1179 29.2273 51.4759 29.0782 52.4032 29.824L62.9522 38.3103C63.8464 39.0396 64.956 39.3711 66.0986 39.2551C67.2247 39.1391 68.2515 38.5755 68.9636 37.6971C69.6757 36.8186 70.0069 35.6915 69.8909 34.5644C69.775 33.4373 69.212 32.4097 68.3343 31.697L57.7853 23.2107C56.858 22.4648 56.7089 21.1057 57.4541 20.1775C58.1994 19.2493 59.5573 19.1001 60.4847 19.846L71.0336 28.3323C72.8221 29.7743 73.9317 31.8296 74.1635 34.1169C74.3954 36.4042 73.7329 38.6252 72.2922 40.4153C70.8514 42.1888 68.798 43.2993 66.5292 43.548C66.2311 43.5811 65.933 43.5977 65.6349 43.5977Z" fill="#612F2B"/>
<path d="M58.6299 54.7027C56.7255 54.7027 54.821 54.0728 53.2312 52.7966L40.7779 42.5699C39.8505 41.8075 39.718 40.4483 40.4798 39.5367C41.2416 38.6085 42.5995 38.476 43.5103 39.2384L55.9637 49.465C57.7853 50.9402 60.4681 50.6584 61.9585 48.8352C62.6706 47.9567 63.0018 46.8296 62.8859 45.7026C62.77 44.5755 62.2069 43.5478 61.3293 42.8351L48.8759 32.6085C47.9485 31.846 47.816 30.4869 48.5778 29.5753C49.3396 28.6471 50.6975 28.5145 51.6083 29.2769L64.0617 39.5036C65.8337 40.9456 66.9432 42.9843 67.175 45.2716C67.4069 47.5589 66.7445 49.78 65.3037 51.57C63.598 53.6087 61.1305 54.7027 58.6299 54.7027Z" fill="#612F2B"/>
<path d="M47.1536 62.1116C45.2492 62.1116 43.3447 61.4817 41.7549 60.2055L32.6302 52.8297C31.7028 52.0838 31.5538 50.7247 32.299 49.7965C33.0442 48.8683 34.4022 48.7191 35.3295 49.465L44.4543 56.8408C46.2925 58.3325 48.9752 58.0507 50.4657 56.2109C51.9561 54.3877 51.6746 51.686 49.8364 50.2109L40.7116 42.8351C39.7843 42.0892 39.6352 40.7301 40.3804 39.8019C41.1257 38.8737 42.4836 38.7245 43.411 39.4704L52.5357 46.8462C56.2121 49.8296 56.7752 55.2496 53.7943 58.9292C52.1383 61.0176 49.6542 62.1116 47.1536 62.1116Z" fill="#612F2B"/>
<path d="M35.3792 69.0731C33.4251 69.0731 31.5372 68.4101 29.9971 67.167L24.0685 62.4597C23.1411 61.7138 22.9755 60.3713 23.7207 59.4265C24.466 58.4983 25.8073 58.3326 26.7513 59.0785L32.6799 63.8023L32.6964 63.8188C33.5741 64.5316 34.7002 64.8631 35.8264 64.747C36.9525 64.631 37.9792 64.0675 38.6913 63.189C39.4034 62.3105 39.7346 61.1835 39.6187 60.0564C39.5027 58.9293 38.9397 57.9016 38.062 57.1889L31.885 52.1668C30.9576 51.4209 30.8251 50.0618 31.5703 49.1336C32.3156 48.2054 33.6735 48.0728 34.6009 48.8187L40.7779 53.8408C42.5498 55.2828 43.6594 57.3381 43.9078 59.6089C44.1562 61.8796 43.4772 64.1172 42.0365 65.9073C40.5957 67.6808 38.5422 68.7913 36.2735 69.0399C35.9754 69.0565 35.6773 69.0731 35.3792 69.0731Z" fill="#612F2B"/>
<path d="M189.572 217.865C188.38 217.865 187.42 216.904 187.42 215.71C187.42 214.517 188.38 213.555 189.572 213.539L210.14 213.456C210.157 213.456 210.157 213.456 210.173 213.456C210.223 213.456 210.289 213.456 210.339 213.456C214.91 213.456 219.232 211.699 222.494 208.484C225.79 205.235 227.645 200.909 227.694 196.268L227.33 181.052C227.148 173.13 220.789 166.864 212.856 166.815L184.654 167.013H184.637C183.462 167.013 182.485 166.052 182.485 164.875C182.468 163.682 183.429 162.721 184.621 162.704L212.84 162.505C212.856 162.505 212.856 162.505 212.873 162.505C217.808 162.538 222.461 164.461 225.989 167.925C229.516 171.389 231.52 176.014 231.636 180.953L232 196.202C232 196.218 232 196.251 232 196.268C231.95 202.069 229.632 207.489 225.508 211.55C221.385 215.611 215.92 217.815 210.14 217.765L189.572 217.865Z" fill="#612F2B"/>
<path d="M189.572 217.865C189.291 217.865 188.993 217.799 188.711 217.683L178.195 213.058C178.179 213.042 178.146 213.042 178.129 213.025C176.059 212.031 170.578 209.395 170.611 204.638C170.644 202.003 171.853 199.566 173.956 197.959C174.9 197.229 176.258 197.412 176.97 198.357C177.699 199.301 177.517 200.66 176.573 201.373C175.529 202.169 174.933 203.362 174.917 204.672C174.9 205.998 176.606 207.489 179.951 209.114L190.434 213.721C191.527 214.202 192.023 215.478 191.543 216.556C191.195 217.384 190.4 217.865 189.572 217.865Z" fill="#612F2B"/>
<path d="M190.069 205.069C189.92 205.069 189.755 205.053 189.606 205.019L169.385 200.561C169.369 200.561 169.336 200.544 169.319 200.544C162.728 198.854 161.387 194.975 161.403 192.025C161.42 189.771 162.314 187.666 163.904 186.074C164.749 185.229 166.106 185.229 166.951 186.074C167.796 186.92 167.796 188.279 166.951 189.124C166.173 189.903 165.726 190.947 165.709 192.058C165.692 192.986 165.676 195.141 170.346 196.351L190.516 200.793C191.676 201.041 192.404 202.202 192.156 203.362C191.957 204.373 191.063 205.069 190.069 205.069Z" fill="#612F2B"/>
<path d="M187.618 192.158C187.536 192.158 187.453 192.158 187.37 192.141L151.136 188.014C151.103 188.014 151.07 187.997 151.037 187.997C146.151 187.202 142.905 183.754 142.939 179.428C142.939 178.566 143.088 177.721 143.353 176.909C143.717 175.782 144.926 175.152 146.068 175.516C147.195 175.881 147.824 177.091 147.46 178.235C147.327 178.632 147.261 179.063 147.261 179.478C147.244 182.063 149.629 183.389 151.699 183.738L187.867 187.865C189.043 187.997 189.904 189.075 189.755 190.251C189.622 191.345 188.695 192.158 187.618 192.158Z" fill="#612F2B"/>
<path d="M139.328 179.743C137.027 179.727 134.89 178.732 133.267 176.959C131.727 175.268 130.866 173.03 130.883 170.793C130.932 166.251 134.658 162.721 139.378 162.721C139.411 162.721 139.444 162.721 139.461 162.721H184.654C185.846 162.721 186.807 163.682 186.807 164.876C186.807 166.069 185.846 167.03 184.654 167.03H139.444C138.252 167.014 137.159 167.411 136.381 168.108C135.602 168.804 135.188 169.749 135.188 170.826C135.172 173.246 137.093 175.384 139.328 175.417L184.522 175.069H184.538C185.714 175.069 186.674 176.03 186.691 177.207C186.707 178.401 185.747 179.378 184.555 179.378L139.328 179.743Z" fill="#612F2B"/>
<path d="M171.108 102.206C170.627 102.206 170.131 102.04 169.733 101.709C168.822 100.946 168.69 99.5872 169.452 98.6756C175.48 91.4158 175.165 84.4544 168.458 76.7803C161.701 69.0399 162.546 62.5923 163.639 59.4431C165.543 54.0065 170.528 50.7744 174.354 50.0783C175.529 49.8628 176.639 50.6418 176.854 51.8186C177.069 52.9955 176.291 54.106 175.115 54.3214C172.399 54.8187 168.988 57.222 167.713 60.8685C166.322 64.8299 167.713 69.3548 171.704 73.9294C179.818 83.2279 180.166 92.4766 172.764 101.41C172.35 101.941 171.737 102.206 171.108 102.206Z" fill="#612F2B"/>
<path d="M149.944 67.2665C149.231 67.2665 148.536 66.9184 148.138 66.272C145.87 62.7581 144.114 56.7249 145.953 50.3602C147.112 46.3325 150.209 40.7634 158.323 36.9843C169.435 31.813 171.025 22.7963 169.385 17.9896C169.004 16.8625 169.601 15.636 170.727 15.2548C171.853 14.8736 173.078 15.4703 173.459 16.5973C174.767 20.4095 174.436 24.9676 172.582 29.0947C171.025 32.5589 167.597 37.4153 160.128 40.896C154.862 43.3491 151.384 47.0287 150.076 51.5702C148.635 56.5592 150.076 61.3659 151.749 63.9515C152.394 64.946 152.113 66.2886 151.103 66.935C150.755 67.167 150.341 67.2665 149.944 67.2665Z" fill="#612F2B"/>
<path d="M120.251 84.9519C120.085 84.9519 119.903 84.9353 119.738 84.8856C118.578 84.6038 117.883 83.4436 118.164 82.2833L121.112 70.2334C121.394 69.0732 122.553 68.3771 123.712 68.6588C124.871 68.9406 125.567 70.1008 125.285 71.2611L122.338 83.311C122.106 84.2889 121.228 84.9519 120.251 84.9519Z" fill="#612F2B"/>
<path d="M70.9674 104.941C67.4234 104.941 64.3598 103.781 62.1076 101.543C59.1102 98.5597 58.0172 94.1342 59.0274 89.0458C59.9713 84.2888 62.6706 79.4655 66.6451 75.4544C70.6196 71.4599 75.4221 68.7251 80.1749 67.7637C85.2424 66.7361 89.6805 67.8135 92.678 70.7803C95.6754 73.7638 96.7683 78.1893 95.7582 83.2777C94.8142 88.0347 92.1149 92.858 88.1404 96.8691C84.1659 100.864 79.3634 103.598 74.6106 104.56C73.352 104.808 72.1266 104.941 70.9674 104.941ZM83.7851 71.692C82.9074 71.692 81.9965 71.7914 81.0195 71.9903C77.0947 72.7859 73.0705 75.1064 69.6922 78.5042C66.3139 81.902 64.0286 85.9463 63.2502 89.8745C62.5382 93.4878 63.2171 96.5542 65.1547 98.4768C67.0922 100.4 70.1393 101.062 73.7661 100.333C77.6909 99.5376 81.715 97.2171 85.0933 93.8193C88.4716 90.4215 90.757 86.3772 91.5353 82.449C92.2474 78.8357 91.5684 75.7694 89.6308 73.8467C88.2067 72.4378 86.1863 71.692 83.7851 71.692Z" fill="#612F2B"/>
<path d="M68.2184 97.0015C68.1687 97.0015 68.1356 97.0015 68.0859 97.0015C66.8935 96.9352 65.9993 95.9076 66.0655 94.7142C66.2808 91.2998 68.0031 88.4986 71.0833 86.6423C73.6667 85.0842 76.5979 84.5373 78.1214 84.3384C79.2972 84.1892 81.2348 82.9295 82.4602 81.0566C83.1227 80.0621 83.7851 78.5206 83.3048 76.8963C82.957 75.7526 83.6029 74.5592 84.7456 74.2112C85.8882 73.8631 87.0806 74.5095 87.4283 75.6532C88.1736 78.156 87.6933 80.924 86.0704 83.4102C84.2488 86.1947 81.2679 88.2997 78.6514 88.6147C76.2667 88.913 70.6693 90.1064 70.3878 94.9628C70.305 96.123 69.3445 97.0015 68.2184 97.0015Z" fill="#612F2B"/>
<path d="M76.1839 128.063C75.6539 128.063 75.1074 127.864 74.6934 127.466L35.611 89.7915C34.7499 88.9628 34.7334 87.6036 35.5614 86.7417C36.3894 85.8798 37.7473 85.8633 38.6085 86.692L77.6743 124.35C78.5354 125.179 78.552 126.538 77.724 127.4C77.31 127.847 76.7469 128.063 76.1839 128.063Z" fill="#612F2B"/>
<path d="M118.098 87.0567C117.568 87.0567 117.022 86.8578 116.608 86.46L77.5418 48.7855C76.6807 47.9568 76.6641 46.5976 77.4921 45.7358C78.3202 44.8739 79.6781 44.8573 80.5392 45.686L119.605 83.3605C120.466 84.1893 120.483 85.5484 119.655 86.4103C119.224 86.8412 118.661 87.0567 118.098 87.0567Z" fill="#612F2B"/>
</g>
</svg>
