<svg width="75" height="75" viewBox="0 0 75 75" fill="none" xmlns="http://www.w3.org/2000/svg">
<path d="M65.7432 38.9932L55.6818 38.0364V34.9841C57.5586 34.0243 59.1624 32.6058 60.3443 30.8603C61.5261 29.1148 62.2477 27.099 62.442 25H62.9239C63.8787 24.9991 64.7941 24.6194 65.4693 23.9443C66.1444 23.2691 66.5241 22.3537 66.525 21.3989V20.6466C66.5224 19.841 66.2497 19.0596 65.7505 18.4274C65.2514 17.7951 64.5546 17.3485 63.7716 17.1591C65.1137 16.4982 66.1981 15.4102 66.8545 14.0659C67.0975 13.4651 67.2147 12.8208 67.1989 12.1728C67.183 11.5249 67.0345 10.8871 66.7625 10.2989C66.2958 9.24358 65.5822 8.31599 64.6818 7.59432C64.1237 7.12859 63.523 6.71654 62.8875 6.36364C61.6034 3.36477 58.3102 0 50 0C44.0625 0 39.9727 1.64091 37.8409 4.87727C34.8864 9.36932 36.7841 15.3648 37.4136 17.0455H37.0727C36.1179 17.0464 35.2025 17.4261 34.5273 18.1012C33.8522 18.7763 33.4725 19.6918 33.4716 20.6466V21.3989C33.4725 22.3543 33.8527 23.2702 34.5285 23.9455C35.2044 24.6207 36.1207 25 37.0761 25H37.558C37.7523 27.099 38.4739 29.1148 39.6557 30.8603C40.8376 32.6058 42.4414 34.0243 44.3182 34.9841V38.0364L34.2568 38.9932C31.7207 39.2248 29.3634 40.3983 27.6499 42.2822C25.9363 44.1662 24.9909 46.6238 25 49.1705V65.9091H21.5614C22.3134 64.9314 22.7231 63.7335 22.7273 62.5V48.2443C22.7273 47.9429 22.6075 47.6539 22.3944 47.4408C22.1813 47.2277 21.8923 47.108 21.5909 47.108H5.68182C5.38044 47.108 5.0914 47.2277 4.87829 47.4408C4.66518 47.6539 4.54545 47.9429 4.54545 48.2443V50H3.40909C2.50494 50 1.63783 50.3592 0.9985 50.9985C0.359171 51.6378 0 52.5049 0 53.4091L0 57.9545C0 58.8587 0.359171 59.7258 0.9985 60.3651C1.63783 61.0045 2.50494 61.3636 3.40909 61.3636H4.54545V62.5C4.54963 63.7335 4.95931 64.9314 5.71136 65.9091H1.13636C0.834981 65.9091 0.545943 66.0288 0.332833 66.2419C0.119724 66.455 0 66.7441 0 67.0455L0 73.8636C0 74.165 0.119724 74.4541 0.332833 74.6672C0.545943 74.8803 0.834981 75 1.13636 75H73.8636C74.165 75 74.4541 74.8803 74.6672 74.6672C74.8803 74.4541 75 74.165 75 73.8636V49.1705C75.0091 46.6238 74.0637 44.1662 72.3501 42.2822C70.6366 40.3983 68.2793 39.2248 65.7432 38.9932ZM56.8182 53.4091C56.8182 53.7105 56.9379 53.9995 57.151 54.2126C57.3641 54.4257 57.6532 54.5455 57.9545 54.5455H60.2273C60.5287 54.5455 60.8177 54.4257 61.0308 54.2126C61.2439 53.9995 61.3636 53.7105 61.3636 53.4091C61.3636 53.1077 61.2439 52.8187 61.0308 52.6056C60.8177 52.3924 60.5287 52.2727 60.2273 52.2727V50H61.2125C61.4089 50.0008 61.6018 50.0519 61.7727 50.1486C61.9436 50.2453 62.0868 50.3843 62.1886 50.5523L64.6102 54.5898C64.7161 54.7667 64.7723 54.9688 64.7727 55.175V65.9091H35.2273V55.175C35.2275 54.9692 35.2837 54.7673 35.3898 54.5909L37.8114 50.5523C37.9132 50.3843 38.0564 50.2453 38.2273 50.1486C38.3982 50.0519 38.5911 50.0008 38.7875 50H39.7727V52.2727C39.4713 52.2727 39.1823 52.3924 38.9692 52.6056C38.7561 52.8187 38.6364 53.1077 38.6364 53.4091C38.6364 53.7105 38.7561 53.9995 38.9692 54.2126C39.1823 54.4257 39.4713 54.5455 39.7727 54.5455H42.0455C42.3468 54.5455 42.6359 54.4257 42.849 54.2126C43.0621 53.9995 43.1818 53.7105 43.1818 53.4091C43.1818 53.1077 43.0621 52.8187 42.849 52.6056C42.6359 52.3924 42.3468 52.2727 42.0455 52.2727V50H57.9545V52.2727C57.6532 52.2727 57.3641 52.3924 57.151 52.6056C56.9379 52.8187 56.8182 53.1077 56.8182 53.4091ZM67.0455 62.5H72.7273V65.9091H67.0455V62.5ZM42.0455 47.7273V40.5364L44.5693 40.2955C44.9228 41.459 45.6411 42.4781 46.618 43.2023C47.5949 43.9265 48.7788 44.3175 49.9949 44.3175C51.211 44.3175 52.3949 43.9265 53.3718 43.2023C54.3487 42.4781 55.0669 41.459 55.4205 40.2955L57.9545 40.5364V47.7273H42.0455ZM64.2523 20.6466V21.3989C64.252 21.7511 64.1119 22.0888 63.8629 22.3379C63.6138 22.5869 63.2761 22.727 62.9239 22.7273H62.5V19.3182H62.9239C63.2761 19.3185 63.6138 19.4585 63.8629 19.7076C64.1119 19.9567 64.252 20.2944 64.2523 20.6466ZM39.7466 6.11932C41.4307 3.56705 44.8807 2.27273 50 2.27273C54.5011 2.27273 57.6955 3.30227 59.5534 5.33068C58.0638 5.29307 56.5952 5.68744 55.3248 6.4662C54.0544 7.24496 53.0366 8.3748 52.3943 9.71932C52.3276 9.85288 52.2879 9.99827 52.2773 10.1472C52.2668 10.2961 52.2858 10.4456 52.333 10.5873C52.4285 10.8732 52.6337 11.1096 52.9034 11.2443C53.1731 11.379 53.4854 11.4011 53.7713 11.3056C53.913 11.2583 54.0439 11.1836 54.1566 11.0858C54.2693 10.9879 54.3617 10.8688 54.4284 10.7352C54.5261 10.5386 56.8989 5.92727 61.4875 8.18977C62.1101 8.50542 62.6946 8.89127 63.2295 9.33977C63.8464 9.82754 64.3383 10.455 64.6648 11.1705C64.8202 11.4805 64.9091 11.8195 64.9257 12.1659C64.9423 12.5123 64.8864 12.8583 64.7614 13.1818C64.0226 14.396 62.8751 15.307 61.525 15.7511L57.5 12.7273C57.3942 12.6495 57.2758 12.5907 57.15 12.5534C57.1084 12.5438 57.0663 12.537 57.0239 12.533C56.9564 12.5159 56.8876 12.5049 56.8182 12.5C56.8057 12.5 56.7943 12.5068 56.7818 12.5068C56.6844 12.5135 56.5882 12.5322 56.4955 12.5625C56.4557 12.575 56.4136 12.5773 56.375 12.5932C56.2404 12.6489 56.1181 12.7303 56.0148 12.833C51.0489 17.8 42.7295 12.7193 42.6466 12.6716C42.4287 12.5359 42.1712 12.478 41.9162 12.5073C41.6611 12.5366 41.4235 12.6514 41.242 12.833L39.1284 14.9466C38.5227 12.7886 37.8784 8.95 39.7466 6.11932ZM35.7477 21.3989V20.6466C35.748 20.2944 35.8881 19.9567 36.1371 19.7076C36.3862 19.4585 36.7239 19.3185 37.0761 19.3182H37.5V22.7273H37.0761C36.7239 22.727 36.3862 22.5869 36.1371 22.3379C35.8881 22.0888 35.748 21.7511 35.7477 21.3989ZM39.7727 23.8636V17.5159L42.2375 15.0511C44.5989 16.3068 51.6523 19.425 56.8875 15.108L60.2273 17.6136V23.8636C60.2273 26.5761 59.1498 29.1774 57.2318 31.0954C55.3138 33.0134 52.7124 34.0909 50 34.0909C47.2876 34.0909 44.6862 33.0134 42.7682 31.0954C40.8502 29.1774 39.7727 26.5761 39.7727 23.8636ZM50 36.3636C51.1533 36.3608 52.3006 36.1979 53.4091 35.8795V38.6364C53.4091 38.75 53.4 38.8466 53.3909 38.9625C53.3041 39.8023 52.9088 40.5799 52.2815 41.1449C51.6542 41.7099 50.8396 42.0221 49.9953 42.021C49.1511 42.0198 48.3373 41.7055 47.7115 41.1388C47.0858 40.5721 46.6925 39.7934 46.608 38.9534C46.6 38.8466 46.5909 38.75 46.5909 38.6364V35.8795C47.6994 36.1979 48.8467 36.3608 50 36.3636ZM34.4716 41.2568L39.7727 40.7523V47.7273H38.7875C38.199 47.7291 37.6209 47.8824 37.1088 48.1724C36.5967 48.4623 36.1679 48.8792 35.8636 49.383L33.4409 53.4216C33.1223 53.9509 32.9541 54.5572 32.9545 55.175V60.2273H27.2727V49.1705C27.2657 47.1901 28.001 45.279 29.3336 43.814C30.6662 42.3491 32.4994 41.4367 34.4716 41.2568ZM27.2727 62.5H32.9545V65.9091H27.2727V62.5ZM3.40909 59.0909C3.10771 59.0909 2.81867 58.9712 2.60556 58.7581C2.39245 58.545 2.27273 58.2559 2.27273 57.9545V53.4091C2.27273 53.1077 2.39245 52.8187 2.60556 52.6056C2.81867 52.3924 3.10771 52.2727 3.40909 52.2727H4.54545V59.0909H3.40909ZM6.81818 62.5V49.3807H20.4545V62.5C20.4545 63.4041 20.0954 64.2713 19.456 64.9106C18.8167 65.5499 17.9496 65.9091 17.0455 65.9091H10.2273C9.32313 65.9091 8.45601 65.5499 7.81668 64.9106C7.17735 64.2713 6.81818 63.4041 6.81818 62.5ZM72.7273 72.7273H2.27273V68.1818H72.7273V72.7273ZM72.7273 60.2273H67.0455V55.175C67.0457 54.5568 66.8776 53.9503 66.5591 53.4205L64.1364 49.3818C63.8318 48.8785 63.4029 48.4619 62.8908 48.1722C62.3788 47.8824 61.8008 47.7292 61.2125 47.7273H60.2273V40.7523L65.5284 41.2568C67.5006 41.4367 69.3338 42.3491 70.6664 43.814C71.999 45.279 72.7343 47.1901 72.7273 49.1705V60.2273Z" fill="#612F2B"/>
</svg>
